<?xml version="1.0" standalone="no"?>
<!DOCTYPE svg PUBLIC "-//W3C//DTD SVG 20010904//EN"
 "http://www.w3.org/TR/2001/REC-SVG-20010904/DTD/svg10.dtd">
<svg version="1.0" xmlns="http://www.w3.org/2000/svg"
 width="1024.000000pt" height="1024.000000pt" viewBox="0 0 1024.000000 1024.000000"
 preserveAspectRatio="xMidYMid meet">

<g transform="translate(0.000000,1024.000000) scale(0.100000,-0.100000)"
fill="#000000" stroke="none">
<path d="M0 5120 l0 -5120 5115 0 5115 0 0 5120 0 5120 -5115 0 -5115 0 0
-5120z m7955 4781 c270 -3 -623 -5 -1983 -4 -1361 1 -2476 4 -2480 7 -7 8
3828 5 4463 -3z m-1870 -92 c132 -3 -266 -4 -884 -3 -618 2 -1126 6 -1129 9
-7 7 1683 2 2013 -6z m398 4 c-7 -2 -19 -2 -25 0 -7 3 -2 5 12 5 14 0 19 -2
13 -5z m2337 -67 c0 -2 -7 -7 -16 -10 -8 -3 -12 -2 -9 4 6 10 25 14 25 6z
m-61 -46 c-13 -16 -25 -28 -27 -25 -5 5 37 55 45 55 2 0 -6 -13 -18 -30z m186
10 c10 -11 16 -20 13 -20 -3 0 -13 9 -23 20 -10 11 -16 20 -13 20 3 0 13 -9
23 -20z m-122 -45 c-3 -9 -8 -14 -10 -11 -3 3 -2 9 2 15 9 16 15 13 8 -4z
m157 -10 l9 -25 453 -2 453 -3 0 -160 1 -160 -3 158 -4 157 -453 0 -454 0 -11
30 c-12 36 -5 41 9 5z m-550 -570 l0 -585 -3215 0 -3215 0 0 585 0 585 3215 0
3215 0 0 -585z m451 558 c13 -16 12 -17 -3 -4 -10 7 -18 15 -18 17 0 8 8 3 21
-13z m-110 -49 c13 -14 17 -23 9 -19 -13 5 -46 45 -37 45 2 0 14 -11 28 -26z
m-8088 -1 c-10 -3 -14 -52 -15 -186 l-2 -182 -3 175 c-4 182 -2 201 19 199 10
0 10 -2 1 -6z m8237 -26 c0 -2 -10 -12 -22 -23 l-23 -19 19 23 c18 21 26 27
26 19z m750 -277 c0 -5 5 -10 11 -10 5 0 7 5 4 10 -11 17 49 11 72 -8 12 -9
27 -28 33 -42 10 -24 10 -24 5 5 -6 29 -6 29 9 10 25 -33 19 -65 -20 -101 -28
-27 -44 -34 -75 -34 -22 0 -51 7 -64 16 -33 21 -50 75 -34 106 23 46 59 74 59
48z m-480 -137 c0 -5 -136 -8 -302 -8 l-303 0 -5 -270 -5 -270 -3 278 -2 277
310 0 c171 0 310 -3 310 -7z m-8506 -149 c12 -32 6 -44 -22 -44 -40 0 -46 10
-20 37 25 27 34 29 42 7z m-141 -51 c-9 -3 -14 -39 -15 -121 l-2 -117 -3 109
c-4 117 -1 136 19 135 10 0 10 -2 1 -6z m8065 -381 c4 -23 -13 -52 -29 -52 -5
0 -9 18 -9 41 0 33 3 40 18 37 9 -2 18 -14 20 -26z m-7778 -27 c0 -11 -11 -15
-41 -15 -26 0 -38 4 -34 11 4 6 12 8 19 6 6 -2 20 -1 31 4 11 4 21 8 23 8 1 1
2 -6 2 -14z m36 6 c11 9 14 8 14 -5 0 -9 -8 -16 -20 -16 -13 0 -20 6 -19 18 0
11 2 12 6 4 4 -10 8 -10 19 -1z m44 -5 c0 10 17 11 53 5 4 0 7 -5 7 -11 0 -5
-18 -10 -40 -10 -31 0 -40 4 -40 18 0 14 2 15 10 2 5 -8 10 -10 10 -4z m160
-7 c0 -5 -9 -9 -20 -9 -22 0 -27 16 -7 23 15 5 27 -1 27 -14z m113 6 c-4 -14
-33 -14 -33 0 0 7 8 12 18 11 9 -2 16 -7 15 -11z m57 5 c0 -5 -7 -10 -15 -10
-8 0 -15 5 -15 10 0 6 7 10 15 10 8 0 15 -4 15 -10z m70 1 c0 -5 -13 -11 -30
-13 -20 -3 -30 0 -30 9 0 8 12 13 30 13 17 0 30 -4 30 -9z m100 -3 c0 -5 -16
-8 -35 -6 -19 1 -35 5 -35 9 0 4 16 6 35 6 19 -1 35 -5 35 -9z m135 2 c3 -5 1
-10 -4 -10 -6 0 -11 5 -11 10 0 6 2 10 4 10 3 0 8 -4 11 -10z m7653 -132 l-2
-143 -3 133 -4 132 -62 2 -62 1 65 7 c36 4 66 7 68 8 1 1 1 -62 0 -140z
m-8593 122 c3 -5 1 -10 -4 -10 -6 0 -11 5 -11 10 0 6 2 10 4 10 3 0 8 -4 11
-10z m135 -2 c0 -5 -18 -8 -40 -6 -22 1 -40 5 -40 8 0 3 18 6 40 6 22 0 40 -3
40 -8z m280 2 c0 -5 -9 -10 -21 -10 -11 0 -17 5 -14 10 3 6 13 10 21 10 8 0
14 -4 14 -10z m8257 4 c-3 -3 -12 -4 -19 -1 -8 3 -5 6 6 6 11 1 17 -2 13 -5z
m360 -10 c-3 -3 -12 -4 -19 -1 -8 3 -5 6 6 6 11 1 17 -2 13 -5z m-7917 -25 c0
-11 -4 -18 -10 -14 -5 3 -7 12 -3 20 7 21 13 19 13 -6z m377 -182 c-2 -23 -3
-1 -3 48 0 50 1 68 3 42 2 -26 2 -67 0 -90z m373 73 c0 -47 -3 -60 -15 -60 -8
0 -15 -7 -15 -15 0 -8 -6 -15 -13 -15 -20 0 -64 -50 -86 -100 -21 -45 -21 -52
-21 -2506 0 -1628 3 -2479 10 -2515 6 -29 22 -72 37 -94 l26 -40 -25 23 c-56
51 -78 157 -78 376 l0 158 -36 -6 c-19 -4 -41 -3 -47 2 -13 10 -571 24 -606
15 -14 -3 -21 -13 -21 -28 0 -14 -8 -26 -19 -30 -11 -3 -17 -13 -15 -23 2 -9
5 -69 7 -132 l4 -115 157 -3 c108 -2 156 -6 154 -13 -3 -8 -61 -12 -175 -13
-94 0 -169 -4 -166 -8 7 -13 -62 -9 -75 4 -7 7 -12 21 -11 33 0 11 3 14 6 8 2
-7 21 -13 40 -13 l36 0 -6 98 c-4 53 -7 125 -7 159 0 51 -4 66 -22 83 -12 11
-17 20 -10 20 6 0 9 10 6 22 -2 13 -2 40 2 60 5 30 12 40 42 55 l37 17 -2 106
c-2 81 -1 99 8 80 5 -14 9 -64 7 -113 -2 -48 0 -87 4 -87 4 0 8 -30 10 -67 l3
-68 170 -5 c94 -3 227 -4 298 -2 l127 3 0 56 0 55 50 -7 50 -7 0 96 0 96 -30
0 -30 0 0 -80 c0 -49 -4 -80 -10 -80 -7 0 -10 33 -8 93 l3 92 38 0 37 0 0 78
0 77 -72 1 c-40 1 -125 5 -188 9 -108 7 -103 7 73 7 l188 0 2 261 2 262 -30 0
c-46 0 -56 12 -62 74 -5 50 -9 57 -32 64 -25 7 -773 10 -881 3 -61 -3 -117 6
-127 22 -4 7 7 8 33 4 21 -4 107 -2 189 3 122 8 152 13 163 27 11 16 12 16 12
0 0 -16 24 -17 290 -17 l290 0 0 31 c0 36 17 72 31 64 5 -4 9 11 9 33 l0 39
-672 6 -673 7 -35 40 c-34 38 -39 40 -95 41 l-60 1 55 10 55 9 35 -40 35 -40
510 9 c281 5 583 9 673 10 l163 0 -3 129 c-3 115 -1 131 16 150 21 24 66 29
66 7 0 -41 -14 -75 -36 -85 -21 -9 -24 -18 -24 -59 0 -27 3 -70 6 -95 l6 -45
49 -4 49 -3 -2 265 c0 146 -3 252 -5 235 l-4 -30 -127 3 c-70 1 -134 5 -142 8
-8 3 -60 6 -115 6 -55 0 -126 2 -157 5 l-58 5 0 113 c0 62 -3 120 -6 129 -5
12 -20 16 -58 16 -32 0 -46 4 -38 9 8 4 14 12 15 17 3 14 59 5 77 -11 9 -8 27
-16 41 -16 17 -1 19 -3 7 -6 -10 -2 -18 -9 -19 -14 0 -5 0 -38 0 -74 0 -36 0
-71 0 -79 1 -8 13 -28 27 -46 l26 -31 235 2 c128 0 246 5 261 9 24 7 22 8 -18
10 -114 4 -135 20 -29 21 52 1 67 3 49 9 l-25 8 27 1 c17 1 28 -5 31 -16 3
-10 5 29 6 87 l1 105 -81 2 c-45 1 -83 4 -85 6 -2 2 -5 14 -7 27 -5 34 -25 37
-277 45 -121 4 -220 12 -220 16 0 5 12 9 26 9 14 0 23 4 19 10 -3 6 2 10 12
10 10 0 117 2 238 4 121 3 255 5 298 5 l77 1 -1 503 c-1 276 -5 484 -8 463 -5
-34 -10 -40 -35 -43 -38 -5 -46 9 -46 85 0 52 -3 62 -17 63 -12 1 -10 4 7 9
20 7 15 9 -25 9 -27 0 -134 4 -237 8 l-187 8 -3 -35 c-2 -19 -2 -125 0 -236
l3 -200 72 13 c83 15 318 14 309 -2 -3 -5 4 -1 16 9 22 19 22 19 22 -5 0 -14
-6 -31 -12 -37 -10 -10 -10 -17 0 -32 11 -18 10 -20 -9 -20 -11 0 -18 4 -15 8
3 5 -2 19 -11 31 -26 39 -37 10 -19 -52 20 -67 20 -139 1 -192 -21 -58 -19
-114 5 -140 28 -29 9 -43 -47 -37 -35 3 -43 8 -43 24 0 11 8 22 20 25 30 8 24
20 -15 34 -19 7 -35 17 -35 21 0 4 -7 8 -15 8 -8 0 -15 -4 -15 -10 0 -6 -25
-9 -57 -9 -50 1 -53 3 -23 8 33 6 31 7 -25 14 -33 3 -79 9 -102 13 l-43 7 0
-103 c0 -57 -2 -101 -5 -99 -4 4 -11 101 -14 192 -1 13 -10 17 -38 17 -55 0
-80 19 -28 21 22 1 43 1 48 0 11 -2 8 27 -4 35 -8 4 -10 33 -7 83 4 63 9 84
34 120 l29 45 1 230 c1 126 0 236 -3 242 -3 7 -19 15 -36 17 -18 2 31 5 109 5
77 1 223 5 323 9 l182 6 -2 568 c-1 563 -1 568 20 602 24 38 105 117 121 117
6 0 10 24 10 55 0 30 5 55 10 55 6 0 10 -27 10 -60z m-902 2 c21 -12 25 -11
37 5 13 17 14 17 20 0 4 -9 2 -24 -5 -32 -9 -10 -9 -15 -1 -15 6 0 11 -7 11
-15 0 -8 5 -15 11 -15 5 0 8 -4 5 -9 -6 -9 31 -47 38 -40 3 2 8 17 12 33 5 21
4 27 -5 22 -6 -4 -11 -1 -11 7 0 8 7 18 15 21 14 5 15 -33 15 -334 -1 -202 -5
-340 -11 -340 -5 0 -9 77 -10 183 -2 219 -1 209 -18 215 -9 3 -11 0 -6 -7 4
-7 -1 -21 -10 -31 -10 -11 -15 -26 -12 -34 3 -8 2 -16 -3 -18 -10 -3 -19 -75
-21 -168 -2 -77 -8 -108 -19 -91 -4 8 -17 10 -33 5 -35 -8 -35 -22 1 -18 l27
4 -27 -12 c-16 -7 -28 -19 -28 -27 0 -11 -4 -10 -14 5 -14 18 -15 18 -22 1 -5
-13 -9 -15 -14 -7 -6 9 -13 9 -30 0 -14 -8 -20 -8 -16 -1 5 7 1 9 -8 5 -9 -4
-17 -19 -18 -38 0 -17 -2 -37 -2 -44 -1 -8 -9 -18 -19 -23 -14 -8 -17 -6 -17
11 0 12 -7 28 -15 37 -13 13 -20 13 -46 2 -26 -10 -32 -10 -40 2 -10 16 -12 8
-3 -15 4 -10 18 -16 35 -16 19 0 29 -5 29 -15 0 -14 -25 -15 -207 -9 -115 3
-222 5 -239 5 -28 -1 -30 1 -28 30 3 40 -4 59 -22 59 -10 0 -14 -12 -14 -40 0
-22 -4 -40 -10 -40 -5 0 -10 18 -10 40 0 29 -4 40 -15 40 -10 0 -15 -10 -15
-30 0 -25 -4 -30 -24 -30 -21 0 -24 6 -30 52 -6 42 -4 55 9 64 14 11 14 12 -1
18 -9 3 -20 4 -25 0 -5 -3 -9 2 -9 10 0 13 14 16 73 17 83 1 147 19 126 35 -8
6 -33 16 -56 24 -23 7 -40 17 -37 21 3 5 0 9 -5 9 -6 0 -11 -4 -11 -9 0 -5 -7
-12 -16 -15 -9 -3 -12 -2 -9 5 4 5 1 16 -5 24 -7 9 -14 60 -17 125 -4 109 -4
110 19 111 18 1 19 2 5 6 -15 4 -17 14 -15 71 2 45 7 66 15 65 6 -2 24 4 40
12 l28 15 -43 0 c-26 0 -41 4 -37 10 3 6 46 10 95 10 49 0 91 4 94 9 4 5 2 11
-4 13 -6 2 -11 20 -12 41 -1 36 -12 49 -21 25 -2 -7 -3 -5 -2 4 3 15 -8 18
-74 21 -42 2 102 3 319 3 309 -1 400 -4 418 -14z m807 9 c26 -7 23 -8 -23 -12
-52 -4 -69 1 -55 15 8 7 37 6 78 -3z m6117 -29 c31 -15 57 -32 57 -39 1 -8
-16 -3 -46 12 -79 43 -117 49 -161 26 -43 -22 -98 -80 -113 -118 -5 -13 -9
-41 -9 -61 -1 -31 -2 -34 -11 -19 -7 11 -8 38 -4 69 6 42 15 60 49 95 46 49
105 75 151 67 17 -3 56 -17 87 -32z m-7975 -755 c-1 -139 -2 -22 -2 258 0 281
1 394 2 252 2 -142 2 -372 0 -510z m332 746 c-7 -10 -15 -20 -16 -22 -2 -2 -3
5 -3 17 0 14 6 22 16 22 14 0 15 -3 3 -17z m1431 -9 c0 -8 -4 -12 -10 -9 -5 3
-10 10 -10 16 0 5 5 9 10 9 6 0 10 -7 10 -16z m6226 -40 c15 -22 22 -99 11
-111 -4 -3 -7 12 -7 34 0 33 -8 49 -42 89 l-43 48 34 -20 c18 -10 40 -28 47
-40z m-4907 -3 c349 -1 631 -4 628 -7 -4 -4 -379 -7 -834 -8 l-828 -1 -35 -22
c-53 -33 -78 -57 -89 -85 -6 -16 -10 -947 -12 -2547 l-2 -2520 28 -36 c15 -20
38 -40 52 -46 15 -5 973 -9 2474 -9 2057 0 2455 2 2483 14 42 18 91 77 105
130 9 30 11 689 9 2501 l-3 2460 -22 41 c-29 55 -83 101 -135 115 -32 8 -386
9 -1358 5 -877 -4 -1320 -3 -1330 4 -11 7 13 10 80 10 1389 7 2628 5 2651 -6
38 -19 107 -99 129 -149 18 -43 19 -76 20 -667 0 -341 1 -622 3 -624 3 -3 151
-6 259 -5 65 1 67 2 71 29 4 26 4 26 12 5 10 -30 22 -29 27 2 4 20 1 26 -18
31 -13 3 -24 11 -24 16 0 6 9 8 20 5 11 -3 18 -1 14 4 -3 5 -12 9 -20 9 -11 0
-14 18 -14 85 0 47 4 93 9 103 5 9 14 30 20 45 14 37 64 57 140 57 49 0 65 -4
88 -24 27 -23 28 -28 27 -108 -1 -101 -20 -146 -65 -155 -50 -10 -12 -23 67
-23 76 0 89 7 97 50 3 16 5 10 6 -17 l1 -43 -62 -1 c-35 -1 -74 -3 -88 -4 -14
-1 -58 -3 -98 -4 l-74 -1 4 -42 3 -43 -65 0 c-36 -1 -69 -2 -75 -4 -5 -2 -39
-2 -74 -1 -44 1 -66 -2 -72 -12 -7 -9 -11 -10 -17 -1 -4 6 -28 13 -55 16 l-47
5 0 -529 0 -529 118 0 117 0 -2 60 -1 60 59 0 c68 0 83 -16 77 -81 l-4 -39 72
0 c52 0 73 -4 77 -14 9 -22 -2 -26 -65 -26 -45 0 -58 -3 -58 -15 0 -8 -5 -15
-11 -15 -8 0 -9 -12 -4 -37 4 -21 9 -51 11 -68 1 -16 3 -33 3 -37 1 -5 55 -8
121 -8 l120 0 0 59 0 58 -42 11 -43 10 43 -2 c24 -2 48 -8 53 -13 6 -6 10 -36
10 -67 l0 -56 90 0 c53 0 89 -4 89 -10 0 -6 -37 -10 -90 -10 l-90 0 0 -69 c0
-50 4 -72 15 -81 13 -11 151 -12 703 -6 378 4 698 8 712 9 15 1 25 -3 25 -11
0 -12 -122 -14 -720 -13 -648 2 -721 3 -737 18 -14 12 -18 31 -18 80 l0 64
-112 -3 -112 -3 -8 -33 c-9 -32 -11 -33 -51 -30 -23 2 -45 8 -49 13 -5 6 -8 5
-8 -2 0 -7 -7 -13 -16 -13 -8 0 -12 -4 -9 -10 3 -5 18 -10 32 -10 18 0 24 -4
20 -14 -3 -8 -1 -17 6 -19 17 -6 -74 -24 -96 -19 -16 4 -18 12 -11 68 l6 64
-111 0 -111 0 0 -470 c0 -369 3 -470 13 -471 10 0 10 -2 0 -6 -16 -6 -18 -193
-3 -193 6 0 10 7 10 15 0 18 12 19 28 3 19 -19 15 -26 -19 -33 -35 -8 -34 -26
2 -36 24 -7 24 -7 -3 -8 -28 -1 -28 -2 -28 -67 l0 -65 58 2 57 3 1 -96 c1 -53
5 -101 9 -107 4 -7 -15 -11 -59 -11 l-66 0 0 -383 c0 -416 -3 -445 -55 -513
-14 -19 -44 -43 -65 -54 -39 -20 -63 -20 -2497 -20 -2404 0 -2459 1 -2500 20
-29 13 -52 34 -72 65 l-30 47 4 2509 4 2509 22 45 c15 29 31 48 46 51 13 4 22
9 19 12 -3 2 5 13 18 23 28 22 97 27 311 23 83 -2 435 -3 784 -3z m5051 -5
c24 -5 25 -8 28 -98 1 -51 -2 -106 -7 -123 -7 -23 -9 -3 -10 81 l-1 112 -45 6
c-25 4 -45 11 -45 16 0 9 28 18 45 14 6 -1 21 -5 35 -8z m-4208 -3 c-40 -2
-103 -2 -140 0 -37 2 -4 3 73 3 77 0 107 -2 67 -3z m-2330 -72 c2 -22 0 -37
-4 -35 -8 5 -11 74 -4 74 2 0 6 -18 8 -39z m6309 23 c12 -15 11 -16 -10 -9
-16 5 -26 3 -32 -6 -5 -8 -9 -9 -9 -3 0 6 -10 10 -22 8 -13 -1 -23 -3 -23 -4
0 -1 -10 -3 -23 -4 -21 -3 -21 -2 -5 16 21 24 105 25 124 2z m776 -26 c-3 -7
-5 -2 -5 12 0 14 2 19 5 13 2 -7 2 -19 0 -25z m-1741 -40 l34 -38 0 -2490 0
-2489 -35 -36 -36 -35 -162 0 c-113 1 -157 4 -145 11 10 5 39 9 65 9 26 -1 84
3 127 8 73 8 82 12 113 45 l33 37 0 2453 0 2452 -25 37 c-20 30 -33 38 -67 43
-24 3 -1101 5 -2394 3 -2335 -3 -2352 -3 -2374 -23 -12 -11 -29 -33 -38 -50
-15 -28 -17 -232 -19 -2465 -1 -2700 -7 -2481 65 -2516 20 -10 69 -23 107 -30
l70 -12 -97 -1 c-54 -1 -108 4 -122 11 -14 6 -35 30 -46 53 -20 41 -20 51 -18
2501 l3 2459 22 35 c42 68 16 64 578 70 281 3 1369 3 2418 0 l1909 -5 34 -37z
m1782 16 c-36 -19 -35 -21 6 -16 24 3 35 -1 39 -12 4 -10 1 -16 -8 -16 -8 0
-15 -9 -15 -19 0 -11 -4 -23 -10 -26 -16 -10 -11 -43 8 -48 9 -3 0 -5 -20 -6
-45 -1 -68 26 -68 80 0 42 35 79 74 79 19 -1 18 -2 -6 -16z m-915 -55 c-4 -13
-9 -17 -16 -10 -12 12 -1 45 12 37 5 -3 7 -15 4 -27z m77 11 c0 -5 -4 -10 -10
-10 -5 0 -10 5 -10 10 0 6 5 10 10 10 6 0 10 -4 10 -10z m30 -5 c0 -8 -2 -15
-4 -15 -2 0 -6 7 -10 15 -3 8 -1 15 4 15 6 0 10 -7 10 -15z m-7823 -248 c-1
-45 -3 -5 -3 88 0 94 2 130 3 82 2 -48 2 -125 0 -170z m7753 238 c0 -8 9 -15
21 -15 11 0 17 -5 14 -10 -4 -7 -12 -7 -24 0 -21 11 -36 40 -21 40 6 0 10 -7
10 -15z m-112 -40 c-3 -3 -9 2 -12 12 -6 14 -5 15 5 6 7 -7 10 -15 7 -18z m88
-38 c8 3 14 0 14 -6 0 -6 -13 -11 -30 -11 -16 0 -30 5 -30 11 0 5 -4 8 -8 5
-5 -3 -9 1 -9 8 0 11 5 11 25 0 13 -7 31 -10 38 -7z m94 3 c0 -5 -4 -10 -10
-10 -5 0 -10 5 -10 10 0 6 5 10 10 10 6 0 10 -4 10 -10z m237 -57 c-3 -10 -5
-4 -5 12 0 17 2 24 5 18 2 -7 2 -21 0 -30z m807 -62 c3 -5 -1 -12 -10 -15 -20
-8 -29 -1 -19 13 8 13 22 14 29 2z m-2323 -64 c56 -37 52 101 57 -2253 4
-1998 3 -2183 -12 -2212 -9 -17 -26 -37 -39 -43 -17 -10 -519 -13 -2185 -13
l-2164 -1 -30 35 -31 34 6 2201 c7 2116 8 2201 26 2225 10 14 29 30 42 37 18
9 518 11 2164 10 2026 -2 2141 -3 2166 -20z m1506 -314 c-1 -59 -3 -13 -3 102
0 116 2 164 3 108 2 -56 2 -151 0 -210z m705 270 c10 -9 18 -21 18 -26 0 -6
-9 -2 -21 8 -20 19 -20 19 -9 -9 13 -35 -1 -56 -39 -57 -23 0 -24 -1 -6 -9 19
-8 19 -9 -2 -9 -27 -1 -53 33 -45 62 13 54 66 74 104 40z m-7115 -199 c-3 -3
-12 -4 -19 -1 -8 3 -5 6 6 6 11 1 17 -2 13 -5z m-45 -16 c-5 -7 -12 -22 -15
-33 -5 -20 -5 -20 -6 1 0 11 4 25 11 32 16 16 23 15 10 0z m-613 -2 c-12 -10
-59 -15 -59 -6 0 5 14 10 32 10 17 0 29 -2 27 -4z m121 -16 c0 -41 -93 -121
-137 -119 -10 0 -4 5 13 10 34 10 114 89 114 114 0 8 2 15 5 15 3 0 5 -9 5
-20z m-112 -50 c-10 -6 -25 -7 -40 -1 -20 9 -18 10 17 10 31 0 36 -2 23 -9z
m-430 -67 c-21 -2 -57 -2 -80 0 -24 2 -7 4 37 4 44 0 63 -2 43 -4z m355 0 c-7
-2 -19 -2 -25 0 -7 3 -2 5 12 5 14 0 19 -2 13 -5z m-90 -10 c-29 -2 -78 -2
-110 0 -32 2 -8 3 52 3 61 0 87 -1 58 -3z m6494 -460 c-2 -21 -4 -6 -4 32 0
39 2 55 4 38 2 -18 2 -50 0 -70z m753 56 c11 -26 11 -32 -1 -40 -10 -6 -11 -9
-1 -9 9 0 8 -7 -4 -25 -17 -27 -54 -34 -54 -11 0 7 7 19 15 26 10 8 12 17 7
22 -10 10 7 68 19 68 4 0 12 -14 19 -31z m-6843 -75 c-3 -3 -12 -4 -19 -1 -8
3 -5 6 6 6 11 1 17 -2 13 -5z m60 0 c-3 -3 -12 -4 -19 -1 -8 3 -5 6 6 6 11 1
17 -2 13 -5z m6310 -101 c-4 -3 -2 -12 4 -20 9 -10 58 -13 223 -13 132 0 217
-4 226 -11 11 -7 -46 -9 -198 -6 -183 5 -217 3 -241 -11 -16 -9 -35 -12 -46
-9 -17 7 -17 8 0 27 10 11 15 26 12 35 -4 10 -1 15 10 15 9 0 13 -3 10 -7z
m-84 -53 c-4 -16 -10 -19 -27 -14 -11 4 -29 7 -38 6 -26 -1 -22 16 5 21 54 10
65 8 60 -13z m-6545 3 c-16 -2 -40 -2 -55 0 -16 2 -3 4 27 4 30 0 43 -2 28 -4z
m72 -44 c0 -26 -15 -39 -47 -39 -16 0 -9 14 8 16 5 1 14 2 19 3 6 0 10 5 10 9
0 10 -36 9 -46 -1 -10 -9 -24 2 -24 18 0 12 21 19 68 21 7 0 12 -11 12 -27z
m490 -104 c0 -68 -4 -115 -10 -115 -9 0 -12 206 -3 223 11 19 13 -1 13 -108z
m5807 18 c-2 -16 -4 -3 -4 27 0 30 2 43 4 28 2 -16 2 -40 0 -55z m260 -15 c-2
-18 -4 -4 -4 32 0 36 2 50 4 33 2 -18 2 -48 0 -65z m-87 27 c0 -8 -4 -15 -10
-15 -5 0 -10 7 -10 15 0 8 5 15 10 15 6 0 10 -7 10 -15z m-6492 -15 c2 0 2
-10 0 -22 -3 -20 -10 -23 -60 -26 -55 -3 -58 -2 -58 21 0 13 3 27 7 31 6 6 58
4 111 -4z m-1101 -142 c-2 -18 -4 -4 -4 32 0 36 2 50 4 33 2 -18 2 -48 0 -65z
m8807 86 c9 -3 16 -10 16 -16 0 -5 -4 -7 -8 -4 -9 6 -8 -56 1 -71 4 -6 1 -13
-5 -16 -7 -2 0 -8 16 -12 19 -5 31 -4 36 4 5 10 9 9 13 -2 8 -20 -1 -27 -34
-27 -23 0 -27 -5 -31 -35 -5 -43 -3 -45 39 -45 l33 0 -1 -64 c-1 -35 4 -72 10
-83 5 -11 7 -23 4 -27 -3 -3 -57 -6 -120 -6 l-113 0 0 60 c0 33 -4 60 -10 60
-5 0 -7 6 -4 14 3 8 -3 19 -16 26 -12 6 -18 16 -13 22 3 7 5 34 4 60 l-2 48
50 0 51 0 0 -50 c0 -47 2 -50 25 -50 22 0 25 4 25 35 0 30 -4 35 -22 35 -21 1
-22 2 -5 14 12 10 17 28 17 69 0 35 5 57 13 60 6 3 13 6 14 6 1 1 8 -2 17 -5z
m93 -126 c-3 -7 -5 -2 -5 12 0 14 2 19 5 13 2 -7 2 -19 0 -25z m-7900 -25
c-20 -2 -52 -2 -70 0 -17 2 0 4 38 4 39 0 53 -2 32 -4z m-946 -1219 l51 -59
-56 59 -56 59 2 566 3 566 2 -566 3 -565 51 -60z m7962 1126 c-3 -11 -9 -23
-14 -26 -5 -3 -9 -10 -9 -16 0 -7 5 -6 14 1 19 16 49 1 72 -34 20 -30 34 -32
34 -4 0 19 3 18 40 -11 47 -37 49 -47 15 -56 -20 -5 -25 -12 -25 -40 0 -19 -6
-37 -15 -41 -11 -6 -16 -35 -19 -113 l-4 -105 -69 0 c-37 0 -72 3 -78 6 -25
15 -106 40 -122 39 -35 -4 -43 0 -43 25 0 16 -6 25 -15 25 -12 0 -15 -13 -15
-55 l0 -55 -45 0 -45 0 0 50 c0 45 -2 50 -25 56 -14 3 -37 4 -50 2 -14 -3 -25
-1 -25 3 0 5 22 9 49 9 l49 0 -2 65 -2 65 45 2 46 2 -47 3 c-45 4 -48 6 -48
31 0 31 15 59 23 44 4 -5 22 -8 42 -6 l35 2 0 -51 c0 -69 11 -157 19 -157 4 0
8 39 10 86 1 48 6 97 11 109 5 13 41 49 79 80 39 32 71 63 71 71 0 9 12 14 34
14 29 0 33 -3 29 -20z m-7310 -97 c-90 -2 -236 -2 -325 0 -90 1 -17 3 162 3
179 0 252 -2 163 -3z m-551 -75 c-2 -27 -8 -48 -13 -48 -12 0 -11 30 2 69 14
41 16 37 11 -21z m838 -120 c0 -116 2 -138 15 -138 13 0 15 20 15 120 0 66 3
120 8 120 4 0 8 -97 10 -216 1 -119 4 -220 7 -224 5 -9 -4 -122 -11 -129 -2
-2 -4 9 -4 25 -1 28 -29 92 -30 67 0 -7 -7 -10 -15 -7 -10 4 -15 21 -16 53
l-1 46 -8 -40 c-4 -22 -6 -44 -3 -48 3 -5 -5 -3 -18 4 -13 7 -27 13 -31 14 -3
0 -10 3 -14 8 -4 4 -19 7 -33 6 -24 0 -24 -1 -6 -9 14 -6 15 -9 5 -10 -81 -8
-80 -6 -80 -148 l0 -128 38 -11 37 -10 -41 -2 c-30 -1 -44 4 -48 15 -3 9 -6
69 -6 135 0 75 -4 119 -10 119 -13 0 -30 -43 -30 -76 0 -32 -46 -105 -70 -111
-15 -4 -20 -16 -22 -52 l-3 -46 -53 -3 c-80 -5 -83 1 -79 134 2 69 -1 110 -7
107 -5 -4 -7 3 -4 15 4 12 2 22 -3 22 -5 0 -9 11 -9 26 0 14 -10 46 -22 72
-12 26 -23 65 -25 87 -2 22 -5 56 -6 75 -2 19 2 38 7 42 7 5 7 8 -2 8 -9 0
-10 5 -2 19 5 11 10 29 10 40 0 12 4 29 9 39 5 9 12 24 14 33 4 12 22 18 64
22 62 6 82 9 98 18 6 3 34 5 62 4 29 0 53 4 53 8 0 5 8 6 18 3 9 -3 34 -8 55
-10 21 -3 44 -9 51 -15 7 -6 16 -8 20 -4 7 7 23 11 61 16 11 1 26 10 33 20 12
15 11 22 -4 45 l-17 27 21 -19 c21 -18 22 -28 22 -158z m347 -14 c-3 -3 -12
-4 -19 -1 -8 3 -5 6 6 6 11 1 17 -2 13 -5z m-1195 -524 l-9 -195 -1 245 c-1
135 1 297 6 360 l7 115 2 -165 c2 -91 -1 -253 -5 -360z m218 445 c0 -5 -4 -10
-10 -9 -5 1 -41 2 -80 3 -97 2 -88 16 10 16 46 0 80 -4 80 -10z m10 -84 c0
-13 -26 -21 -68 -21 -48 0 -83 10 -76 21 7 12 144 12 144 0z m7583 -28 c7 -42
2 -54 -18 -46 -15 5 -21 63 -8 76 13 14 21 6 26 -30z m47 -3 c0 -31 -3 -38
-15 -34 -8 4 -15 12 -15 20 0 13 21 54 27 54 2 0 3 -18 3 -40z m137 14 c4 -13
-26 -49 -34 -40 -4 4 -2 11 5 15 7 4 10 15 6 26 -5 12 -3 16 6 13 8 -2 15 -8
17 -14z m-7772 -55 c12 -18 -3 -23 -75 -25 -67 -3 -88 5 -75 26 8 13 142 13
150 -1z m7595 -59 c0 -16 -4 -30 -8 -30 -6 0 -9 47 -3 58 5 10 11 -3 11 -28z
m707 14 c-16 -9 -26 -18 -23 -21 3 -3 12 0 21 7 8 7 22 9 31 6 13 -5 14 -9 4
-21 -10 -12 -16 -13 -28 -3 -13 11 -15 10 -8 -6 7 -19 6 -19 -12 -3 -18 17
-20 16 -35 -5 -9 -13 -16 -18 -16 -12 -1 16 60 74 78 74 10 -1 5 -7 -12 -16z
m63 -16 c0 -19 -2 -20 -10 -8 -13 19 -13 30 0 30 6 0 10 -10 10 -22z m-8360
-1 c0 -21 -22 -37 -51 -37 -15 0 -30 -4 -34 -10 -3 -5 -13 -6 -22 -3 -11 4
-14 3 -9 -5 4 -7 29 -12 57 -12 42 0 49 -3 49 -20 0 -16 -7 -20 -37 -22 -21 0
-50 0 -65 1 -19 2 -28 -3 -28 -12 0 -11 18 -17 65 -22 46 -5 65 -11 65 -21 0
-11 -17 -14 -75 -14 l-75 0 0 34 c0 19 -5 36 -12 38 -7 3 -5 13 7 31 9 15 13
27 8 27 -7 0 -10 46 -4 58 0 1 37 2 81 2 59 0 80 -3 80 -13z m718 -362 c1
-144 -2 -194 -12 -207 -12 -16 -33 -18 -212 -16 l-199 1 145 8 c80 5 168 6
197 3 31 -3 54 -1 58 5 3 6 7 129 7 273 1 173 3 239 8 193 4 -38 8 -155 8
-260z m660 288 c-10 -2 -26 -2 -35 0 -10 3 -2 5 17 5 19 0 27 -2 18 -5z m7022
-5 c-56 -16 -64 -22 -76 -69 l-12 -44 -1 43 c-1 37 3 45 32 62 17 11 46 19 62
19 l30 -1 -35 -10z m-8433 -44 c-3 -3 -12 -4 -19 -1 -8 3 -5 6 6 6 11 1 17 -2
13 -5z m670 -216 c-2 -35 -3 -7 -3 62 0 69 1 97 3 63 2 -35 2 -91 0 -125z
m7700 123 c7 -11 23 -21 35 -24 21 -4 21 -4 2 -6 -11 0 -31 10 -44 24 -13 14
-19 25 -14 25 5 0 15 -9 21 -19z m-8394 -8 c-24 -2 -62 -2 -85 0 -24 2 -5 4
42 4 47 0 66 -2 43 -4z m1275 -1 c8 -6 2 -9 -17 -9 -17 0 -28 4 -25 9 7 10 25
10 42 0z m-1238 -62 c0 -6 -32 -10 -75 -10 -43 0 -75 4 -75 10 0 6 32 10 75
10 43 0 75 -4 75 -10z m690 -77 c-1 -24 -2 -26 -11 -10 -5 9 -7 22 -4 27 10
17 15 11 15 -17z m-712 10 c-21 -2 -55 -2 -75 0 -21 2 -4 4 37 4 41 0 58 -2
38 -4z m7172 -32 c0 -11 -4 -22 -9 -25 -5 -3 -8 5 -7 19 1 29 16 34 16 6z
m-6797 -58 c-95 -3 -143 -7 -143 -14 0 -8 -4 -8 -13 -1 -8 7 -67 13 -138 15
-68 1 2 3 156 3 154 0 216 -2 138 -3z m467 -34 c0 -19 -21 -50 -30 -44 -5 3
-16 -5 -24 -17 -9 -12 -16 -17 -16 -11 0 6 7 16 15 23 8 7 15 18 15 24 0 14
20 36 32 36 4 0 8 -5 8 -11z m-582 -100 l27 -2 -27 -4 c-26 -4 -28 -8 -28 -49
0 -24 -4 -44 -10 -44 -5 0 -10 20 -10 45 l0 45 -67 2 -68 2 68 3 c53 3 70 8
75 21 6 16 7 16 10 0 2 -11 14 -19 30 -19z m1162 -39 c0 -5 -4 -10 -9 -10 -5
0 -13 -9 -16 -20 -3 -11 -13 -20 -21 -20 -17 0 -19 31 -2 48 15 15 48 16 48 2z
m5678 -47 c-16 -2 -40 -2 -55 0 -16 2 -3 4 27 4 30 0 43 -2 28 -4z m-131 -146
c-10 -70 -9 -82 6 -109 24 -42 13 -48 -12 -7 -23 38 -27 88 -10 140 6 19 13
40 15 48 11 34 11 -1 1 -72z m323 46 c0 -43 -5 -41 -13 5 -4 18 -2 32 3 32 6
0 10 -16 10 -37z m-150 7 c0 -5 -2 -10 -4 -10 -3 0 -8 5 -11 10 -3 6 -1 10 4
10 6 0 11 -4 11 -10z m1818 -7 c-16 -2 -40 -2 -55 0 -16 2 -3 4 27 4 30 0 43
-2 28 -4z m69 -8 c8 -23 0 -24 -19 -3 -15 15 -16 18 -3 18 9 0 18 -7 22 -15z
m-70 -45 c64 -39 77 -118 28 -170 -57 -60 -129 -83 -187 -61 -34 13 -85 68
-91 99 -9 41 31 113 73 134 48 25 136 24 177 -2z m-2093 4 c9 -3 16 -13 16
-21 0 -20 -34 -12 -38 10 -4 19 -1 20 22 11z m51 -14 c3 -6 -1 -7 -9 -4 -18 7
-21 14 -7 14 6 0 13 -4 16 -10z m380 -11 c4 -6 5 -13 1 -16 -8 -8 -56 6 -56
17 0 13 47 13 55 -1z m-187 -71 c-2 -6 -10 -14 -16 -16 -7 -2 -10 2 -6 12 7
18 28 22 22 4z m112 -8 c0 -5 -2 -10 -4 -10 -3 0 -8 5 -11 10 -3 6 -1 10 4 10
6 0 11 -4 11 -10z m-80 -35 c0 -28 -3 -33 -17 -28 -11 4 -12 8 -5 11 7 2 12
15 12 28 0 13 2 24 5 24 3 0 5 -16 5 -35z m180 -5 c0 -8 173 -10 552 -9 403 1
553 -2 556 -10 3 -9 -144 -11 -559 -11 -535 1 -564 0 -570 -17 -7 -17 -8 -17
-8 0 -1 10 -5 16 -9 13 -5 -3 -22 -1 -38 4 -27 8 -27 8 14 9 30 1 42 5 42 16
0 8 5 15 10 15 6 0 10 -5 10 -10z m-380 -72 c0 -28 -3 -39 -10 -32 -9 9 -3 74
6 74 2 0 4 -19 4 -42z m-6245 -18 c3 -5 1 -10 -4 -10 -6 0 -11 5 -11 10 0 6 2
10 4 10 3 0 8 -4 11 -10z m5 -41 c0 -5 -4 -9 -10 -9 -5 0 -10 7 -10 16 0 8 5
12 10 9 6 -3 10 -10 10 -16z m6447 -41 c-3 -8 -6 -5 -6 6 -1 11 2 17 5 13 3
-3 4 -12 1 -19z m59 -85 c-4 -4 -11 -1 -16 7 -16 25 -11 35 7 17 9 -9 13 -20
9 -24z m632 -19 c39 -3 72 -10 72 -16 0 -6 27 -7 73 -3 114 10 196 9 210 -4 9
-7 98 -14 243 -18 206 -7 219 -9 129 -14 -55 -4 -146 -7 -202 -8 l-103 -1 0
-50 0 -50 -82 0 c-46 0 -101 -3 -122 -7 -31 -5 -37 -3 -31 7 6 9 4 11 -4 6 -7
-5 -28 -8 -47 -8 -21 0 -38 -6 -41 -14 -9 -23 -21 -16 -25 14 l-4 27 -13 -27
c-7 -14 -23 -29 -35 -32 -28 -8 -350 -8 -370 0 -9 3 -16 12 -16 20 0 20 -20
17 -22 -3 -1 -10 -2 -27 -3 -38 -1 -11 -3 -66 -4 -123 0 -64 -5 -101 -11 -97
-11 7 -16 -15 -24 -97 -5 -43 -3 -58 6 -58 10 0 10 -2 1 -8 -6 -4 -13 -25 -16
-47 -2 -22 -4 39 -5 136 -1 97 -5 191 -8 208 l-7 32 -28 -27 c-25 -24 -29 -25
-29 -9 0 10 -10 29 -22 42 l-21 23 31 44 c18 24 32 47 32 51 0 14 66 88 90
100 14 7 35 22 46 33 12 11 32 22 45 24 33 4 227 0 317 -8z m-6977 -73 l36
-44 76 2 c47 1 78 -3 83 -10 4 -8 -3 -9 -25 -4 -20 4 -37 2 -46 -5 -8 -6 -18
-9 -24 -6 -5 3 -22 3 -37 0 l-29 -5 4 -124 c3 -121 3 -124 -21 -139 -13 -9
-38 -18 -55 -22 -26 -5 -34 -1 -57 29 -15 19 -24 41 -20 50 5 13 -5 15 -63 14
-50 -2 -67 1 -66 10 2 7 -2 12 -9 10 -15 -3 -38 41 -38 73 1 75 108 99 162 37
24 -28 27 -40 28 -103 0 -57 4 -74 21 -93 22 -23 43 -22 87 5 27 17 27 27 5
61 -13 19 -14 28 -5 31 18 6 16 126 -4 165 -41 80 -87 107 -184 107 -74 0 -84
-8 -54 -41 15 -16 14 -17 -5 -12 -15 4 -28 -4 -47 -26 -29 -35 -80 -65 -94
-56 -5 3 -164 7 -352 9 -189 2 -350 6 -359 10 -8 4 -25 26 -36 50 -21 41 -24
44 -80 53 l-58 10 47 2 c65 2 76 -5 104 -61 l25 -49 381 3 380 3 34 40 c18 22
34 49 34 60 0 18 6 20 72 17 99 -3 112 -7 155 -45 24 -21 33 -24 23 -11 -8 12
-26 37 -38 55 -25 36 -9 20 49 -50z m537 -42 c14 0 13 -3 -5 -16 -21 -14 -23
-24 -25 -112 l-2 -96 -5 100 -6 100 -145 5 c-170 6 -154 20 23 20 99 0 119 3
124 16 5 15 7 15 15 0 5 -9 17 -16 26 -17z m7359 -381 c-1 -68 -3 -13 -3 122
0 135 2 190 3 123 2 -68 2 -178 0 -245z m-620 316 c-3 -3 -12 -4 -19 -1 -8 3
-5 6 6 6 11 1 17 -2 13 -5z m-7130 -86 c-2 -18 -4 -6 -4 27 0 33 2 48 4 33 2
-15 2 -42 0 -60z m7870 -505 c-1 -109 -2 -20 -2 197 0 217 1 306 2 198 2 -109
2 -287 0 -395z m-600 521 c5 -14 -88 -24 -232 -24 -94 0 -114 3 -119 16 -3 9
-4 19 -2 22 7 12 349 -2 353 -14z m-7486 -1 c13 -16 12 -17 -3 -4 -17 13 -22
21 -14 21 2 0 10 -8 17 -17z m6873 -59 c11 -41 -10 -66 -51 -62 -30 2 -39 8
-49 34 -12 29 -11 35 14 66 l26 34 27 -24 c15 -13 30 -35 33 -48z m-7164 46
c0 -11 -4 -20 -10 -20 -5 0 -10 9 -10 20 0 11 5 20 10 20 6 0 10 -9 10 -20z
m6365 10 c-3 -5 -10 -10 -16 -10 -5 0 -9 5 -9 10 0 6 7 10 16 10 8 0 12 -4 9
-10z m-5859 -108 c-11 -10 -15 4 -8 28 l7 25 3 -23 c2 -13 1 -26 -2 -30z
m7274 18 c0 -17 -41 -21 -184 -18 -101 2 -141 6 -144 16 -3 9 34 12 162 12
102 0 166 -4 166 -10z m350 -16 c0 -10 -5 -14 -15 -10 -8 3 -26 1 -40 -4 -19
-7 -25 -6 -25 5 0 13 20 20 63 24 9 0 17 -6 17 -15z m50 10 c0 -3 -6 -12 -14
-19 -12 -12 -15 -12 -19 -1 -3 8 -3 17 0 20 8 8 33 8 33 0z m-8170 -29 c7 -8
16 -15 21 -15 5 0 27 -11 48 -24 29 -19 48 -24 76 -20 23 3 34 1 30 -6 -3 -5
2 -10 12 -11 10 0 4 -5 -14 -10 -29 -8 -42 -4 -118 37 -47 25 -85 50 -85 55 0
14 16 11 30 -6z m6762 -222 c-12 -20 -16 155 -5 183 5 12 9 -16 11 -74 1 -51
-1 -100 -6 -109z m273 188 c-3 -6 16 -11 45 -13 75 -4 66 -23 -12 -26 -38 -2
-68 0 -68 4 0 4 7 16 17 26 17 19 28 24 18 9z m790 -21 c17 -7 -83 -11 -437
-15 -48 0 -58 -8 -58 -47 0 -26 3 -28 38 -28 22 0 75 -3 118 -7 112 -10 56
-20 -117 -22 l-135 -1 -2 65 -2 65 287 -1 c159 0 297 -4 308 -9z m-7608 -6
c-3 -3 -12 -4 -19 -1 -8 3 -5 6 6 6 11 1 17 -2 13 -5z m7878 -4 c3 -5 -1 -10
-9 -10 -9 0 -16 5 -16 10 0 6 4 10 9 10 6 0 13 -4 16 -10z m55 -5 c0 -8 -4
-15 -10 -15 -5 0 -10 7 -10 15 0 8 5 15 10 15 6 0 10 -7 10 -15z m-1060 -55
c0 -12 -35 -31 -44 -23 -15 15 -4 33 19 33 14 0 25 -4 25 -10z m765 -29 c68
-2 75 -4 50 -12 -16 -6 -77 -8 -135 -5 -58 3 -111 6 -117 6 -7 0 -13 3 -13 8
0 7 72 8 215 3z m-525 -101 c0 -47 -3 -60 -15 -60 -11 0 -15 11 -15 36 0 21
-4 33 -10 29 -5 -3 -10 -19 -10 -36 0 -21 -5 -29 -18 -29 -24 0 -29 50 -4 51
16 1 16 2 0 6 -22 5 -24 23 -3 23 8 0 15 4 15 10 0 5 -7 7 -15 4 -8 -4 -15 -1
-15 5 0 6 9 11 20 11 11 0 20 -7 20 -15 0 -8 5 -15 10 -15 6 0 10 9 10 20 0
11 7 20 15 20 12 0 15 -13 15 -60z m-923 34 c-3 -3 -12 -4 -19 -1 -8 3 -5 6 6
6 11 1 17 -2 13 -5z m741 -6 c-3 -7 -23 -14 -46 -16 -33 -2 -42 0 -42 12 0 12
11 16 46 16 32 0 44 -4 42 -12z m-445 -5 c-7 -2 -21 -2 -30 0 -10 3 -4 5 12 5
17 0 24 -2 18 -5z m342 -3 c-3 -5 -10 -10 -16 -10 -5 0 -9 5 -9 10 0 6 7 10
16 10 8 0 12 -4 9 -10z m-245 -291 l35 -6 -37 -2 c-26 -1 -38 -6 -41 -18 -3
-10 -4 56 -4 147 l1 165 6 -140 5 -140 35 -6z m978 227 c-2 -15 -7 -28 -13
-29 -12 -2 -19 38 -10 60 9 25 27 1 23 -31z m-41 2 c-3 -7 -5 -2 -5 12 0 14 2
19 5 13 2 -7 2 -19 0 -25z m74 15 c1 -17 2 -17 6 0 7 27 23 20 23 -10 0 -23
-4 -28 -25 -28 -21 0 -25 5 -25 28 0 29 19 38 21 10z m78 -18 c-2 -27 -2 -27
-6 -5 l-5 24 -14 -24 -13 -25 -1 32 c0 26 4 31 20 30 16 -1 20 -8 19 -32z
m159 18 c-10 -2 -26 -2 -35 0 -10 3 -2 5 17 5 19 0 27 -2 18 -5z m98 -110 c-7
-7 -97 -5 -105 3 -2 2 22 4 54 4 32 0 55 -3 51 -7z m-8646 -38 c0 -25 -20 -37
-20 -12 -1 6 -8 -1 -17 -17 -15 -28 -14 -31 4 -46 11 -8 17 -22 15 -29 -3 -8
0 -11 6 -7 7 4 9 -21 7 -81 -2 -48 0 -94 5 -104 8 -14 6 -16 -10 -12 -13 3
-26 -2 -37 -16 -16 -18 -29 -21 -128 -21 -140 -1 -132 -2 -138 13 -4 10 10 12
57 11 33 -1 43 0 21 3 -80 7 -87 11 -81 43 2 17 0 30 -6 30 -7 0 -6 5 1 14 7
9 11 41 9 83 -1 37 1 77 6 88 6 17 4 16 -14 -4 -19 -22 -21 -35 -19 -130 1
-103 10 -149 30 -161 5 -4 64 -5 132 -3 67 2 126 3 130 3 4 0 12 10 17 23 l9
22 0 -22 c1 -30 -35 -53 -84 -54 -34 -1 -36 -2 -15 -9 33 -10 -89 -17 -145 -9
l-40 6 45 3 c35 2 38 4 15 7 -90 11 -103 32 -111 175 -6 85 -4 110 10 135 9
18 20 34 26 38 17 11 114 14 193 6 60 -5 77 -4 77 6 0 8 -14 13 -40 13 -22 0
-40 4 -40 8 0 20 28 32 77 32 50 0 53 -1 53 -25z m-225 -5 c-3 -5 -15 -10 -26
-10 -10 0 -19 5 -19 10 0 6 12 10 26 10 14 0 23 -4 19 -10z m75 0 c12 -8 11
-10 -7 -10 -13 0 -23 5 -23 10 0 13 11 13 30 0z m653 -17 c-8 -3 -14 -24 -14
-51 l-2 -47 -7 45 c-8 51 -6 60 18 59 11 0 12 -3 5 -6z m6901 -87 c-3 -9 -13
-12 -27 -8 -21 6 -21 6 3 13 14 4 26 7 27 8 1 1 0 -5 -3 -13z m505 -22 c9 -9
-465 -2 -484 7 -12 5 76 6 230 3 138 -4 252 -8 254 -10z m-7389 -8 c0 -9 -30
-14 -35 -6 -4 6 3 10 14 10 12 0 21 -2 21 -4z m6740 -68 c0 -16 -4 -28 -10
-28 -5 0 -10 19 -10 43 0 31 3 38 10 27 5 -8 10 -27 10 -42z m-6257 25 c-7 -2
-21 -2 -30 0 -10 3 -4 5 12 5 17 0 24 -2 18 -5z m7121 -43 l671 -5 -663 -3
c-438 -1 -670 1 -682 8 -11 6 -24 20 -30 33 -10 20 -9 20 11 -3 l21 -25 672
-5z m-908 -35 c7 -17 34 -20 34 -4 0 6 7 8 15 5 25 -9 123 -89 130 -106 8 -17
7 -331 -1 -339 -2 -3 -7 5 -11 18 -5 20 -10 22 -37 16 -87 -17 -96 -18 -96 -1
0 28 -1 31 -16 47 -10 11 -12 19 -4 22 6 3 5 4 -2 3 -9 -2 -12 -16 -10 -42 l3
-40 -57 -2 c-48 -2 -62 2 -82 21 -22 21 -24 21 -36 5 -7 -10 -21 -18 -30 -18
-14 0 -16 16 -16 123 0 116 1 124 27 162 40 60 66 85 119 116 57 33 63 34 70
14z m760 -93 c-2 -4 -67 -8 -143 -9 -86 0 -123 2 -98 7 56 10 247 12 241 2z
m516 1 c-95 -2 -248 -2 -340 0 -92 1 -14 3 173 3 187 0 262 -2 167 -3z m-7492
-17 l45 -15 -57 0 c-45 -1 -58 2 -58 14 0 19 13 19 70 1z m6517 8 c-3 -3 -12
-4 -19 -1 -8 3 -5 6 6 6 11 1 17 -2 13 -5z m91 -1 c-10 -2 -26 -2 -35 0 -10 3
-2 5 17 5 19 0 27 -2 18 -5z m-6520 -148 c-2 -1 -20 -5 -40 -9 -28 -5 -38 -4
-38 6 0 10 12 12 41 10 22 -2 39 -5 37 -7z m-358 -80 c0 -8 4 -14 9 -12 11 3
51 -42 51 -57 0 -6 -5 -4 -10 4 -5 8 -10 11 -10 7 0 -9 -60 58 -60 67 0 3 5 6
10 6 6 0 10 -7 10 -15z m345 -84 c0 -11 -19 -14 -90 -12 -80 2 -115 11 -115
30 0 3 46 4 102 1 79 -4 103 -8 103 -19z m-221 9 c-7 -7 -19 -7 -35 -1 -23 9
-22 10 11 10 23 1 31 -2 24 -9z m5014 3 c-16 -2 -40 -2 -55 0 -16 2 -3 4 27 4
30 0 43 -2 28 -4z m302 -3 c0 -11 -237 -6 -248 5 -3 3 52 5 121 5 79 0 127 -4
127 -10z m527 -144 c3 -3 -1168 -5 -2603 -4 -1435 2 -2418 5 -2184 8 567 8
4779 5 4787 -4z m1502 -4 l1043 -2 -3 -289 c-3 -229 -7 -287 -17 -284 -8 4
-10 13 -6 27 9 29 9 27 1 69 -7 33 -10 36 -27 27 -24 -13 -52 -14 -31 -1 8 5
-12 8 -50 6 -35 -1 -99 -3 -141 -3 l-78 -2 0 -45 0 -45 -232 -1 c-128 -1 -398
-2 -600 -3 -274 -1 -368 -4 -368 -13 0 -11 -96 -25 -145 -21 -11 1 -69 0 -130
-2 l-110 -4 115 -6 c86 -4 47 -7 -154 -8 l-270 -2 31 33 c17 17 41 44 53 60
13 15 30 27 37 27 27 0 103 83 132 144 30 62 51 166 34 166 -10 0 -33 43 -33
62 0 7 5 6 15 -2 12 -10 15 -10 15 1 0 24 -17 42 -33 36 -9 -3 -26 7 -43 25
-16 17 -42 39 -59 50 -16 11 -21 16 -10 12 11 -5 490 -10 1064 -12z m-7449
-28 c-69 -13 -183 -31 -254 -39 -71 -9 -168 -22 -215 -30 -47 -7 -113 -16
-146 -20 -33 -3 -87 -9 -120 -13 -33 -4 -79 -7 -102 -7 -23 0 -39 -3 -37 -7 7
-11 -4 -10 -27 2 -14 8 -25 7 -41 -4 -13 -8 -50 -18 -83 -22 -32 -4 -73 -15
-90 -25 -16 -11 -33 -19 -36 -19 -3 0 -6 41 -8 90 l-2 90 38 2 38 1 -37 4
c-21 2 -38 8 -38 14 0 5 248 9 643 8 l642 -1 -125 -24z m3966 -44 c1826 -1
2495 -4 2500 -12 11 -18 -26 -38 -69 -38 l-40 0 7 -37 c4 -21 10 -54 13 -73
l5 -35 -2444 -2 c-1343 -1 -2468 -3 -2498 -3 -274 -3 -1189 7 -1202 14 -13 6
-18 4 -18 -7 0 -21 44 -50 104 -71 46 -15 287 -16 3040 -16 1978 0 3006 4
3036 11 25 5 57 19 73 30 15 11 27 15 27 10 0 -15 -49 -50 -89 -62 -51 -15
-5954 -23 -6020 -8 -25 6 -59 13 -76 15 -16 3 -36 7 -42 9 -19 7 -16 -4 15
-44 16 -20 39 -53 51 -73 12 -21 27 -38 32 -38 10 0 44 -61 41 -73 -1 -5 2 -6
7 -3 11 7 41 -3 41 -14 0 -4 -7 -10 -14 -13 -11 -4 -13 -1 -9 11 6 14 4 15 -8
5 -11 -9 -25 -10 -50 -3 -36 11 -210 20 -364 19 -49 0 -97 0 -105 0 -8 0 -149
3 -313 7 -239 6 -297 10 -297 21 0 7 -9 13 -19 13 -13 0 -21 8 -23 23 -2 16
-9 22 -25 21 -13 -1 -23 3 -23 7 0 5 8 9 18 10 10 0 12 3 4 6 -6 2 -10 9 -7
13 3 5 -5 7 -17 4 -34 -8 -310 -5 -341 4 -15 4 39 6 120 4 171 -4 174 -4 523
77 462 106 614 140 659 144 26 3 48 11 53 21 5 9 15 16 23 16 15 0 58 54 49
63 -3 3 -1 15 6 26 l11 22 546 -1 c300 -1 548 2 551 5 4 4 20 4 36 1 15 -3
1150 -6 2522 -6z m1674 -420 c0 -7 -783 -10 -2330 -10 -1547 0 -2330 3 -2330
10 0 7 783 10 2330 10 1547 0 2330 -3 2330 -10z m513 -7 c-83 -2 -223 -2 -310
0 -87 1 -18 3 152 3 171 0 242 -2 158 -3z m2130 -20 c-13 -2 -33 -2 -45 0 -13
2 -3 4 22 4 25 0 35 -2 23 -4z m-8880 -80 c-7 -2 -19 -2 -25 0 -7 3 -2 5 12 5
14 0 19 -2 13 -5z m434 0 c-20 -2 -52 -2 -70 0 -17 2 0 4 38 4 39 0 53 -2 32
-4z m435 0 c-40 -2 -103 -2 -140 0 -37 2 -4 3 73 3 77 0 107 -2 67 -3z m684
-91 c-5 -8 -66 -4 -66 4 0 2 16 4 36 4 19 0 33 -4 30 -8z m4409 -4 c-33 -11
-153 -15 -650 -23 -187 -3 -495 -8 -685 -12 -301 -7 -326 -9 -195 -13 l150 -6
-178 -2 c-117 -1 -176 1 -172 8 4 7 -336 11 -1012 12 -560 1 -1036 2 -1058 2
-22 -1 -125 6 -230 14 -104 8 -224 16 -267 16 -42 1 -80 4 -84 9 -4 4 987 7
2202 6 1476 0 2199 -4 2179 -11z m2670 -148 c298 0 456 -3 449 -10 -6 -6
-1254 -10 -3529 -10 -6003 -1 -6115 -1 -6115 10 0 11 2676 17 6380 12 1295 -1
2562 -2 2815 -2z"/>
<path d="M9639 9263 c-13 -16 -12 -17 4 -4 9 7 17 15 17 17 0 8 -8 3 -21 -13z"/>
<path d="M9621 9199 c-1 -8 10 -26 23 -38 18 -17 33 -21 62 -18 l39 4 -41 1
c-40 2 -65 19 -77 52 -5 13 -6 13 -6 -1z"/>
<path d="M9764 9168 l-19 -23 23 19 c21 18 27 26 19 26 -2 0 -12 -10 -23 -22z"/>
<path d="M2065 6530 c3 -5 8 -10 11 -10 2 0 4 5 4 10 0 6 -5 10 -11 10 -5 0
-7 -4 -4 -10z"/>
<path d="M2291 5854 c0 -11 3 -14 6 -6 3 7 2 16 -1 19 -3 4 -6 -2 -5 -13z"/>
<path d="M2190 5835 c0 -8 7 -15 16 -15 14 0 14 3 4 15 -7 8 -14 15 -16 15 -2
0 -4 -7 -4 -15z"/>
<path d="M2260 5820 l-35 -7 38 -2 c20 0 37 4 37 9 0 6 -1 9 -2 9 -2 -1 -19
-5 -38 -9z"/>
<path d="M2240 4975 c0 -28 4 -35 20 -35 11 0 20 -4 20 -10 0 -5 5 -10 10 -10
6 0 10 20 10 45 0 43 -1 45 -30 45 -28 0 -30 -3 -30 -35z"/>
<path d="M843 8253 c9 -2 25 -2 35 0 9 3 1 5 -18 5 -19 0 -27 -2 -17 -5z"/>
<path d="M778 7742 c-10 -2 -18 -12 -18 -23 0 -16 7 -19 55 -19 30 0 55 2 55
4 0 10 -77 42 -92 38z"/>
<path d="M890 7640 c0 -22 4 -40 9 -40 13 0 18 19 13 52 -6 42 -22 34 -22 -12z"/>
<path d="M940 7639 c0 -52 24 -48 28 4 2 28 -1 37 -12 37 -12 0 -16 -11 -16
-41z"/>
<path d="M990 7655 c0 -16 5 -37 10 -45 7 -12 10 -8 10 15 0 17 -5 37 -10 45
-7 12 -10 8 -10 -15z"/>
<path d="M751 7644 c0 -11 3 -14 6 -6 3 7 2 16 -1 19 -3 4 -6 -2 -5 -13z"/>
<path d="M1102 7625 c0 -16 2 -22 5 -12 2 9 2 23 0 30 -3 6 -5 -1 -5 -18z"/>
<path d="M1046 7625 c-3 -9 0 -15 9 -15 8 0 15 7 15 15 0 8 -4 15 -9 15 -5 0
-11 -7 -15 -15z"/>
<path d="M7610 5657 l0 -83 105 -2 c120 -3 112 -10 117 106 l3 62 -112 0 -113
0 0 -83z"/>
<path d="M7612 4096 l3 -91 45 0 c29 1 45 5 44 13 -1 7 -2 47 -3 90 l-1 77
-45 1 -46 2 3 -92z m54 66 c-10 -2 -22 0 -28 6 -6 6 0 7 19 4 21 -5 23 -7 9
-10z"/>
<path d="M9192 8123 c2 -10 10 -18 18 -18 22 0 18 29 -3 33 -14 3 -18 -1 -15
-15z"/>
<path d="M2840 7883 c-8 -3 -23 -15 -32 -27 -16 -19 -18 -50 -18 -286 0 -154
4 -271 10 -280 5 -8 10 -10 10 -4 0 6 7 11 15 11 8 0 15 -5 16 -11 0 -6 4 -2
9 9 7 17 9 17 9 3 1 -11 9 -18 22 -18 18 0 19 -2 5 -15 -8 -8 -32 -15 -55 -15
-41 0 -41 0 -40 -37 1 -21 3 -30 6 -21 4 15 16 16 100 11 89 -5 95 -4 91 13
-2 11 -10 18 -16 17 -7 -2 -12 8 -12 25 0 21 2 24 10 12 7 -11 10 1 10 41 0
64 -6 69 -71 69 -53 0 -50 16 5 24 49 8 61 18 63 56 9 132 15 163 40 186 29
27 113 55 128 43 6 -4 172 -5 368 -2 l358 6 -2 92 -1 92 -63 7 c-74 7 -943 6
-965 -1z m77 -629 c-3 -3 -12 -4 -19 -1 -8 3 -5 6 6 6 11 1 17 -2 13 -5z"/>
<path d="M4348 7880 c-26 -5 -26 -5 -25 -97 l2 -93 280 -2 280 -3 3 23 c2 12
9 22 15 21 22 -4 67 20 67 35 0 11 -15 16 -57 19 -32 2 14 4 103 5 141 2 163
0 180 -15 10 -10 19 -25 19 -33 0 -8 6 -15 13 -15 8 0 20 -9 28 -19 12 -18 14
-8 14 82 l0 103 -447 -3 c-247 -1 -460 -5 -475 -8z m847 -70 c-4 -6 -53 -10
-116 -10 -66 0 -109 4 -109 10 0 6 45 10 116 10 74 0 113 -4 109 -10z m-605
-29 c0 -13 -7 -18 -25 -18 -15 0 -25 5 -25 14 0 10 7 14 20 10 11 -3 20 -1 20
4 0 5 2 9 5 9 3 0 5 -8 5 -19z m168 10 c21 -1 32 -6 32 -16 0 -17 -45 -21 -55
-5 -3 6 -12 10 -18 10 -7 0 -6 -4 3 -10 10 -6 5 -9 -18 -8 -18 1 -32 5 -32 11
0 5 -7 4 -15 -3 -12 -10 -15 -10 -15 2 0 21 5 24 47 22 21 -1 53 -3 71 -3z
m-328 -17 c0 -8 -9 -14 -20 -14 -11 0 -20 5 -20 11 0 5 -5 7 -12 3 -6 -4 -8
-3 -5 3 10 16 57 13 57 -3z m100 1 c0 -8 -7 -15 -15 -15 -8 0 -15 6 -15 13 0
8 -3 8 -8 2 -10 -15 -44 -13 -49 3 -3 8 9 12 41 12 34 0 46 -4 46 -15z m100
-1 c0 -17 -22 -14 -28 4 -2 7 3 12 12 12 9 0 16 -7 16 -16z"/>
<path d="M5703 7882 l-93 -3 0 -45 c0 -43 1 -45 28 -44 15 1 45 2 67 1 62 -2
27 -24 -39 -25 -58 -1 -63 -5 -62 -46 1 -25 2 -25 104 -28 l102 -3 0 95 c0 52
-3 96 -7 98 -5 2 -50 2 -100 0z"/>
<path d="M6500 7875 c-18 -10 -27 -10 -32 -2 -4 7 -10 2 -16 -13 l-9 -25 -7
23 c-7 21 -12 22 -122 22 l-115 0 3 -92 3 -93 350 -5 c327 -5 352 -6 384 -25
67 -39 76 -62 76 -193 0 -88 3 -116 13 -114 17 3 15 -15 -3 -22 -16 -6 -20
-75 -9 -157 l6 -44 77 10 76 11 3 324 c1 179 0 335 -3 348 -3 12 -20 31 -38
42 -30 19 -51 20 -322 20 -227 -1 -295 -4 -315 -15z"/>
<path d="M3900 7785 l0 -95 200 0 200 0 0 95 0 95 -200 0 -200 0 0 -95z m273
16 c41 -1 57 -5 57 -14 0 -11 -31 -14 -140 -16 -114 -2 -140 0 -140 12 0 23 9
25 88 22 42 -2 103 -4 135 -4z"/>
<path d="M5569 7855 c-1 -16 -3 -48 -5 -70 -3 -45 4 -90 13 -81 9 9 11 127 2
156 -7 25 -7 25 -10 -5z"/>
<path d="M5925 7855 c0 -14 3 -25 7 -25 4 0 -1 -29 -11 -64 l-18 -65 91 -3
c50 -2 92 0 94 3 2 4 22 4 45 2 l43 -5 -7 78 c-4 44 -8 85 -8 92 -1 9 -32 12
-118 12 l-118 0 0 -25z m173 -76 c12 -5 22 -15 22 -24 0 -11 -12 -15 -53 -15
-52 0 -77 12 -77 36 0 15 72 16 108 3z"/>
<path d="M5158 7723 c7 -3 16 -2 19 1 4 3 -2 6 -13 5 -11 0 -14 -3 -6 -6z"/>
<path d="M5050 7701 c0 -10 109 -5 119 4 2 3 -23 5 -57 5 -34 0 -62 -4 -62 -9z"/>
<path d="M3865 7661 c-546 -4 -757 -9 -776 -18 -53 -23 -59 -44 -59 -208 0
-82 3 -255 7 -382 5 -185 9 -233 20 -233 8 0 13 -13 14 -37 0 -21 4 -49 7 -63
4 -14 7 -547 7 -1185 0 -895 -3 -1165 -12 -1180 -11 -17 -12 -9 -13 51 0 39
-3 127 -7 195 l-8 124 -6 -95 c-4 -52 -7 -287 -8 -522 l-1 -427 24 -28 24 -28
1899 -3 c1345 -2 1909 0 1936 8 77 22 70 -167 71 2010 l1 1950 -33 32 -32 33
-853 3 c-468 1 -987 4 -1152 5 -165 2 -637 1 -1050 -2z m-185 -330 l-95 -6 -3
-37 -3 -36 -65 -4 -64 -3 0 28 c0 15 4 27 9 27 5 0 12 8 15 18 5 15 22 17 153
18 126 1 134 0 53 -5z m1068 -8 c-148 -2 -388 -2 -535 0 -148 1 -27 2 267 2
294 0 415 -1 268 -2z m1255 0 c-177 -2 -469 -2 -650 0 -180 1 -35 2 322 2 358
0 505 -1 328 -2z m507 -38 l0 -45 -39 0 c-42 0 -53 15 -44 64 5 23 10 26 44
26 l39 0 0 -45z m-3050 -1566 c0 -811 3 -1513 6 -1561 6 -77 9 -88 25 -88 15
0 19 -8 19 -35 0 -29 -4 -35 -22 -35 -21 0 -21 -1 -5 -17 17 -17 105 -18 1538
-21 1039 -1 1526 1 1540 8 14 8 19 21 19 56 l0 45 38 -3 37 -3 -2 -49 c-1 -27
-5 -52 -10 -56 -4 -5 -719 -10 -1587 -11 -1351 -3 -1580 -2 -1584 11 -3 7 -15
23 -28 35 -27 25 -32 63 -9 71 13 5 15 189 15 1572 0 861 2 1563 5 1560 3 -3
6 -669 5 -1479z m3147 -821 c-1 -420 -2 -79 -2 757 0 836 1 1179 2 763 2 -416
2 -1100 0 -1520z m-2795 2234 c-15 -5 -16 -42 -1 -42 5 0 7 -4 4 -10 -3 -5
-26 -10 -51 -10 -44 0 -44 0 -44 35 0 34 1 35 39 35 22 0 43 5 47 12 6 9 9 8
12 -2 3 -8 0 -16 -6 -18z m1185 21 c-9 -9 -1086 -10 -1081 -1 3 5 249 8 546 8
298 0 538 -3 535 -7z m1253 -8 c0 -10 15 -15 58 -17 55 -3 57 -4 60 -32 3 -23
0 -28 -13 -22 -9 3 -39 6 -66 6 -48 0 -49 1 -49 30 0 27 -3 30 -32 31 -18 1
-294 5 -613 8 l-580 7 618 2 c533 2 617 0 617 -13z m-2334 -195 c63 0 104 -4
104 -10 0 -6 -42 -10 -105 -10 l-105 0 -3 -297 -2 -298 -1 335 c-1 184 1 323
3 308 l4 -28 105 0z m2294 -10 c0 -6 -26 -10 -60 -10 -78 0 -78 14 0 18 35 1
60 -2 60 -8z m-1180 -70 c0 -11 -7 -20 -15 -20 -8 0 -15 9 -15 20 0 11 7 20
15 20 8 0 15 -9 15 -20z m250 -61 c137 -37 325 -140 385 -210 l20 -24 -20 15
c-18 14 -19 14 -6 -2 7 -10 18 -15 23 -12 22 14 154 -153 222 -280 51 -95 66
-163 39 -173 -10 -3 -26 -14 -35 -23 -15 -16 -15 -19 0 -33 9 -9 13 -19 9 -23
-10 -11 -95 85 -109 122 -7 19 -16 34 -20 34 -4 0 -8 6 -8 13 0 25 -59 97 -74
91 -8 -3 -17 -1 -21 5 -4 7 0 8 10 4 16 -5 16 -4 1 25 -18 36 -38 51 -44 34
-2 -7 -8 -9 -14 -6 -7 4 -6 9 2 14 8 5 9 13 4 21 -13 22 -12 50 2 56 9 3 3 14
-17 34 -23 22 -38 29 -57 26 -15 -2 -21 -2 -14 0 6 3 12 9 12 15 0 5 6 8 14 5
7 -3 25 2 39 12 21 13 24 20 15 29 -18 18 -35 14 -41 -8 -3 -12 -14 -20 -26
-20 -12 0 -21 -4 -21 -9 0 -5 -7 -12 -16 -15 -8 -3 -12 -2 -9 4 3 6 -1 10 -10
10 -9 0 -14 4 -11 9 4 5 -2 7 -12 5 -9 -3 -27 4 -39 15 -12 12 -28 18 -36 15
-8 -3 -17 2 -20 10 -4 9 -16 16 -27 16 -12 0 -18 4 -15 10 3 6 -1 7 -9 4 -9
-3 -16 -1 -16 5 0 6 -6 9 -12 7 -7 -1 -10 -1 -5 1 4 3 7 9 7 15 0 26 34 77 53
81 21 3 21 4 -3 14 -19 8 -26 7 -30 -3 -3 -8 -10 -10 -19 -5 -7 5 -10 14 -7
20 4 6 4 11 -1 9 -4 -1 -33 4 -63 10 -90 20 -281 23 -347 5 -32 -8 -72 -17
-90 -20 -24 -4 -30 -9 -26 -22 4 -13 3 -13 -5 -2 -8 11 -20 10 -73 -8 -34 -11
-65 -19 -67 -16 -3 3 0 5 6 5 6 0 17 6 24 14 88 87 415 128 608 75z m-95 -74
l0 -40 -75 3 c-100 4 -110 8 -110 41 0 15 3 31 7 35 4 4 46 5 93 4 l85 -3 0
-40z m90 21 c18 -13 18 -14 -8 -9 -15 3 -27 9 -27 14 0 13 13 11 35 -5z m-550
-71 c32 -31 31 -37 -11 -57 -32 -16 -35 -17 -41 -2 -3 9 -1 26 6 36 7 11 8 17
3 14 -12 -7 -42 3 -42 15 0 4 6 6 14 3 8 -3 17 -1 21 5 10 17 24 13 50 -14z
m340 -4 l-30 -7 40 -7 c22 -4 55 -7 74 -7 19 0 31 -3 27 -7 -7 -8 -198 -5
-205 3 -3 3 5 7 17 11 12 3 22 9 22 14 0 5 19 8 43 8 38 -1 39 -2 12 -8z
m-445 -11 c0 -5 -4 -10 -9 -10 -5 0 -4 -14 2 -30 16 -43 1 -64 -48 -64 -48 0
-68 24 -42 52 9 10 14 22 10 27 -5 4 -3 6 2 2 6 -3 22 3 35 14 27 20 50 25 50
9z m-113 -58 c-26 -28 -21 -41 22 -60 l38 -17 -24 -18 c-22 -18 -24 -17 -58 9
l-35 26 -36 -27 c-41 -32 -56 -27 -22 7 65 66 164 135 115 80z m496 11 c-18
-2 -48 -2 -65 0 -18 2 -4 4 32 4 36 0 50 -2 33 -4z m150 0 c-7 -2 -19 -2 -25
0 -7 3 -2 5 12 5 14 0 19 -2 13 -5z m163 -13 c51 -25 33 -25 -31 0 -28 11 -41
19 -29 20 11 0 38 -9 60 -20z m-656 -50 c-20 -15 -24 -26 -21 -55 2 -25 -1
-35 -8 -31 -6 4 -11 2 -11 -4 0 -7 -5 -6 -14 2 -16 15 -10 32 7 22 9 -5 9 -4
0 6 -14 15 -36 3 -29 -15 3 -8 -3 -19 -11 -27 -15 -11 -16 -11 -10 5 11 30
-26 3 -104 -75 -70 -70 -82 -68 -17 3 67 73 154 140 174 133 15 -4 16 -4 5 4
-12 8 -8 14 20 31 42 26 52 27 19 1z m468 13 c-21 -2 -55 -2 -75 0 -21 2 -4 4
37 4 41 0 58 -2 38 -4z m258 -8 c25 -19 15 -19 -27 0 -25 10 -29 14 -13 15 11
0 29 -7 40 -15z m85 -32 c13 -16 12 -17 -3 -4 -10 7 -18 15 -18 17 0 8 8 3 21
-13z m-1043 -69 c15 -13 20 -24 14 -28 -6 -3 -22 5 -37 18 -25 23 -65 26 -65
4 0 -5 6 -6 13 -2 8 5 8 3 -2 -9 -7 -9 -17 -15 -21 -12 -5 3 -11 -1 -13 -7 -4
-9 -6 -9 -6 -1 -1 6 10 25 24 41 29 34 54 33 93 -4z m1172 24 c0 -10 2 -10 9
0 6 10 10 8 14 -9 8 -31 6 -32 -28 -4 -23 19 -26 24 -12 25 9 0 17 -6 17 -12z
m-73 -18 c14 -11 22 -20 18 -20 -4 0 -18 9 -32 20 -14 11 -22 20 -18 20 4 0
18 -9 32 -20z m-920 -32 c-6 -4 -15 -5 -19 -2 -4 3 -20 -2 -35 -10 l-28 -15
40 5 c28 4 36 3 26 -4 -8 -6 -21 -8 -29 -4 -11 4 -13 1 -7 -8 6 -9 4 -11 -5
-5 -8 5 -19 -1 -32 -16 l-18 -24 10 28 c5 15 7 27 4 27 -2 0 0 9 7 21 7 14 17
19 29 16 11 -3 24 1 31 9 8 10 14 11 24 1 9 -8 9 -14 2 -19z m627 5 c-8 -8
-11 -19 -8 -25 4 -6 -7 -8 -27 -6 -20 2 -33 8 -32 15 4 17 -86 26 -204 19 -64
-3 -105 -1 -109 5 -4 7 62 9 194 8 175 -2 199 -4 186 -16z m391 -13 c3 -5 1
-10 -4 -10 -6 0 -11 5 -11 10 0 6 2 10 4 10 3 0 8 -4 11 -10z m-988 -6 c-3 -3
-12 -4 -19 -1 -8 3 -5 6 6 6 11 1 17 -2 13 -5z m270 0 c-3 -3 -12 -4 -19 -1
-8 3 -5 6 6 6 11 1 17 -2 13 -5z m-577 -18 c0 -3 -4 -8 -10 -11 -5 -3 -10 -1
-10 4 0 6 5 11 10 11 6 0 10 -2 10 -4z m174 -11 c-4 -8 -11 -15 -16 -15 -6 0
-8 -7 -5 -15 7 -17 -9 -30 -18 -15 -4 6 -12 7 -18 4 -7 -4 2 7 18 24 33 34 47
40 39 17z m116 -5 c-6 -11 -13 -20 -16 -20 -2 0 0 9 6 20 6 11 13 20 16 20 2
0 0 -9 -6 -20z m-251 -13 c20 -22 20 -25 5 -37 -14 -12 -15 -11 -12 5 4 24
-18 31 -26 8 -5 -11 -1 -22 9 -29 9 -7 12 -15 7 -18 -6 -3 -19 2 -31 12 l-21
17 21 33 c12 17 22 32 23 32 1 0 12 -11 25 -23z m211 10 c0 -2 -10 -12 -22
-23 l-23 -19 19 23 c18 21 26 27 26 19z m-290 -21 c0 -15 -18 -31 -26 -23 -7
7 7 37 17 37 5 0 9 -6 9 -14z m290 -10 c0 -2 -8 -10 -17 -17 -16 -13 -17 -12
-4 4 13 16 21 21 21 13z m-50 -22 c0 -8 -19 -13 -24 -6 -3 5 1 9 9 9 8 0 15
-2 15 -3z m95 -4 c-3 -5 -11 -10 -16 -10 -6 0 -7 5 -4 10 3 6 11 10 16 10 6 0
7 -4 4 -10z m803 3 c-10 -2 -28 -2 -40 0 -13 2 -5 4 17 4 22 1 32 -1 23 -4z
m-314 -10 l-81 -4 11 -34 c10 -31 15 -34 60 -41 34 -4 51 -3 54 5 2 7 42 11
118 11 74 0 113 -4 109 -10 -9 -15 15 -12 31 4 8 8 14 22 14 31 0 17 24 47 32
40 8 -8 0 -93 -11 -111 -6 -11 -11 -13 -11 -6 0 15 -116 17 -125 2 -3 -5 -1
-10 4 -10 16 0 9 -69 -7 -75 -7 -3 -10 0 -7 5 3 6 1 10 -6 10 -7 0 -4 7 7 15
14 12 15 14 2 9 -12 -4 -15 -1 -12 13 8 34 -9 41 -114 44 -56 2 -102 2 -102
-1 0 -9 72 -44 91 -45 10 0 19 -4 19 -10 2 -17 41 -53 72 -66 25 -10 31 -10
39 2 8 13 13 6 10 -13 0 -5 3 -8 8 -8 5 0 6 -61 3 -134 l-5 -135 26 -6 c14 -4
36 -5 48 -3 22 3 24 8 27 72 2 55 0 72 -13 78 -24 14 -18 45 10 50 13 3 26 3
28 1 3 -2 3 -46 1 -98 l-4 -95 40 0 40 0 0 70 c0 62 2 70 19 70 21 0 36 -26
21 -35 -6 -4 -10 0 -11 7 -2 25 -17 -37 -18 -74 -1 -37 0 -38 37 -40 20 0 51
-2 67 -4 17 -1 65 -2 108 -3 59 -1 77 -4 77 -15 0 -20 -32 -25 -159 -25 -68 0
-118 -4 -125 -11 -7 -7 -3 -10 14 -8 15 2 25 -2 24 -9 -1 -7 -2 -29 -2 -48 -2
-33 -22 -52 -22 -21 0 8 -5 18 -11 21 -6 4 -9 -2 -8 -17 4 -43 -1 -98 -9 -98
-4 0 -6 18 -4 40 3 33 1 40 -14 41 -17 1 -17 2 -1 6 13 3 17 15 17 52 0 46 -1
49 -31 55 -17 3 -34 4 -38 1 -5 -2 -31 -1 -60 4 -43 7 -55 5 -73 -11 -12 -10
-33 -21 -47 -24 -44 -10 -131 -57 -131 -71 0 -7 5 -13 10 -13 6 0 10 -16 10
-35 l0 -35 55 0 55 0 -5 30 c-4 20 -1 30 7 31 7 0 3 4 -9 9 -26 11 -21 40 7
40 10 0 24 2 32 5 30 11 16 -237 -15 -257 -9 -6 -8 -12 6 -22 22 -17 22 -26
-1 -26 -14 0 -18 8 -19 38 0 20 -1 61 -2 90 l-1 53 -52 -2 c-50 -3 -53 -5 -59
-33 l-6 -31 -2 33 c-1 32 -2 33 -41 30 l-39 -2 2 -49 c3 -69 -19 -73 -27 -5
-3 29 -7 66 -9 83 -1 21 -8 31 -22 34 -11 2 -33 14 -51 27 -17 13 -34 21 -38
16 -4 -4 -6 0 -4 8 2 10 -5 15 -19 15 -11 0 -25 4 -29 8 -5 4 -1 5 9 1 28 -10
19 10 -11 28 -23 14 -29 14 -29 4 0 -8 7 -12 16 -9 11 3 11 1 -2 -7 -15 -9
-24 -7 -53 15 -18 14 -34 30 -34 34 0 4 -19 7 -42 7 -39 -1 -77 19 -63 32 3 4
30 9 58 12 l52 5 2 113 c2 111 3 114 30 135 15 11 50 43 76 69 32 32 56 49 70
48 45 -4 57 0 57 19 0 18 -8 20 -102 19 -153 -1 -220 4 -210 14 5 5 79 10 163
11 l154 2 0 30 c0 28 -3 30 -45 36 -25 3 16 6 90 5 74 0 99 -2 54 -3z m-662
-25 c-6 -24 -18 -23 -25 1 -3 14 0 19 13 18 11 -1 15 -7 12 -19z m120 14 c-7
-5 -29 -8 -48 -7 -29 1 -39 -4 -47 -22 -6 -13 -14 -23 -19 -23 -5 0 -1 12 10
28 17 22 29 27 68 30 29 1 44 -1 36 -6z m58 -6 c0 -2 -7 -7 -16 -10 -8 -3 -12
-2 -9 4 6 10 25 14 25 6z m-335 -27 c25 -12 45 -25 45 -30 0 -12 -7 -11 -30 3
-15 10 -22 10 -31 1 -9 -9 -7 -17 12 -32 37 -31 6 -27 -50 6 -2 2 3 11 13 22
16 17 16 18 -6 17 -15 -1 -24 -9 -28 -25 -3 -14 -11 -26 -18 -29 -16 -5 -15 0
4 48 19 46 27 48 89 19z m110 -12 c-8 -12 -20 -32 -25 -44 -5 -13 -12 -23 -15
-23 -5 0 11 46 23 64 4 6 7 14 8 19 1 4 2 10 3 13 0 3 6 2 12 -1 7 -5 5 -14
-6 -28z m135 20 c0 -2 -10 -12 -22 -23 l-23 -19 19 23 c18 21 26 27 26 19z
m284 -18 c-3 -5 -10 -7 -15 -3 -5 3 -7 10 -3 15 3 5 10 7 15 3 5 -3 7 -10 3
-15z m-1015 -309 c-3 -30 -6 31 -6 135 1 184 1 186 6 55 3 -74 3 -160 0 -190z
m631 284 c0 5 6 3 13 -3 8 -6 18 -7 22 -3 5 4 5 2 1 -5 -5 -8 -14 -9 -30 -3
-13 5 -27 6 -30 3 -3 -4 -6 -2 -6 4 0 17 13 24 22 11 4 -7 8 -9 8 -4z m150 -4
c0 -5 -10 -10 -22 -9 -22 0 -22 1 -3 9 11 5 21 9 23 9 1 1 2 -3 2 -9z m40 -2
c0 -4 -7 -8 -15 -8 -8 0 -15 4 -15 8 0 5 7 9 15 9 8 0 15 -4 15 -9z m-100 -5
c-8 -3 -21 -10 -27 -16 -9 -7 -13 -5 -13 7 0 11 8 16 28 15 15 0 21 -3 12 -6z
m300 -27 c0 -3 -4 -8 -10 -11 -5 -3 -10 -1 -10 4 0 6 5 11 10 11 6 0 10 -2 10
-4z m-575 -26 c22 -24 13 -50 -17 -51 -23 0 -23 0 2 -11 14 -6 20 -12 13 -15
-22 -8 -53 17 -53 43 0 14 -4 22 -10 19 -5 -3 -10 -2 -10 2 0 7 34 28 51 32 3
0 14 -8 24 -19z m166 -11 c-5 -13 -10 -19 -10 -12 -1 15 10 45 15 40 3 -2 0
-15 -5 -28z m-82 -40 c-16 -34 -32 -59 -34 -57 -6 6 49 117 58 117 4 1 -7 -26
-24 -60z m1108 29 c-3 -7 -5 -2 -5 12 0 14 2 19 5 13 2 -7 2 -19 0 -25z m-837
18 c0 -3 -4 -8 -10 -11 -5 -3 -10 -1 -10 4 0 6 5 11 10 11 6 0 10 -2 10 -4z
m215 -26 c3 -5 1 -10 -4 -10 -6 0 -11 5 -11 10 0 6 2 10 4 10 3 0 8 -4 11 -10z
m-116 -67 c0 9 6 17 13 17 6 0 9 -3 5 -6 -9 -10 16 -32 30 -27 7 3 13 0 13 -6
0 -6 -3 -10 -7 -10 -5 1 -20 1 -35 0 -21 -1 -27 -6 -30 -28 -2 -16 3 -33 12
-40 13 -11 13 -12 -2 -13 -10 0 -19 -8 -19 -17 -1 -16 -2 -16 -6 0 -3 13 -11
17 -24 14 -10 -3 -22 -1 -25 4 -4 8 17 14 39 10 4 0 7 16 7 37 0 20 3 55 7 77
l7 40 7 -35 c3 -19 7 -27 8 -17z m741 -12 c0 -48 -1 -50 -27 -47 -16 2 -30 4
-33 5 -3 0 -5 16 -4 33 1 24 6 34 20 36 10 2 23 8 29 13 14 14 15 12 15 -40z
m-1099 16 c-10 -9 -11 -8 -5 6 3 10 9 15 12 12 3 -3 0 -11 -7 -18z m250 -127
c7 0 9 -26 7 -70 -3 -64 -1 -70 19 -75 15 -3 20 -10 16 -21 -3 -8 -12 -13 -19
-10 -11 4 -14 -14 -14 -94 l0 -99 33 -10 32 -9 -37 -1 c-20 -1 -39 3 -42 7 -2
4 -6 125 -9 267 -2 143 -2 227 0 188 2 -41 8 -73 14 -73z m-387 133 c4 -5 13
-8 19 -8 6 0 14 -11 18 -25 4 -14 7 -21 8 -16 1 5 10 1 20 -8 11 -10 25 -15
31 -11 7 4 16 2 20 -5 10 -15 -10 -51 -23 -43 -5 3 -7 -23 -4 -61 3 -36 1 -68
-4 -71 -5 -4 -9 20 -9 55 0 37 -4 59 -10 55 -5 -3 -9 -26 -8 -51 0 -29 -5 -50
-13 -56 -11 -8 -10 -9 4 -4 21 7 24 -29 4 -65 -18 -34 -33 -33 -43 4 l-8 32
-4 -40 c-4 -33 -6 -37 -13 -20 -8 17 -9 15 -5 -8 2 -16 0 -25 -4 -20 -10 10 0
373 10 373 4 0 10 -3 14 -7z m563 1 c-3 -3 -12 -4 -19 -1 -8 3 -5 6 6 6 11 1
17 -2 13 -5z m-615 -56 c-2 -29 -7 -150 -12 -268 l-9 -215 5 259 c4 225 8 276
17 276 1 0 1 -24 -1 -52z m235 10 c-3 -8 -6 -5 -6 6 -1 11 2 17 5 13 3 -3 4
-12 1 -19z m968 -8 c3 -5 -1 -10 -10 -10 -9 0 -13 5 -10 10 3 6 8 10 10 10 2
0 7 -4 10 -10z m-640 -20 c3 -5 1 -10 -4 -10 -6 0 -11 5 -11 10 0 6 2 10 4 10
3 0 8 -4 11 -10z m1582 -22 c-3 -8 -6 -5 -6 6 -1 11 2 17 5 13 3 -3 4 -12 1
-19z m0 -145 c-3 -10 -5 -4 -5 12 0 17 2 24 5 18 2 -7 2 -21 0 -30z m-2488
-55 c-2 -86 -6 -76 -11 25 -2 31 0 57 5 57 4 0 6 -37 6 -82z m131 68 c0 -3 -4
-8 -10 -11 -5 -3 -10 -1 -10 4 0 6 5 11 10 11 6 0 10 -2 10 -4z m600 -60 c0
-11 -19 -14 -91 -14 -96 0 -123 4 -113 19 3 5 50 9 105 9 79 0 99 -3 99 -14z
m1757 -38 c-3 -7 -5 -2 -5 12 0 14 2 19 5 13 2 -7 2 -19 0 -25z m-450 -40 c-3
-7 -5 -2 -5 12 0 14 2 19 5 13 2 -7 2 -19 0 -25z m-1043 -29 c24 -11 25 -16
22 -68 -4 -46 -8 -57 -24 -59 -21 -3 -32 29 -32 99 0 44 0 43 34 28z m627 -14
c3 -115 2 -120 -17 -120 -12 0 -17 5 -14 15 4 13 5 31 9 108 1 30 21 28 22 -3z
m-721 -105 c10 -7 11 -10 3 -10 -7 0 -14 -10 -14 -22 l-2 -23 -4 23 c-2 12 -7
22 -11 22 -4 0 -5 30 -3 67 l5 68 6 -58 c3 -35 11 -62 20 -67z m-368 82 c3
-11 0 -19 -7 -19 -7 0 -10 8 -7 19 2 10 6 18 7 18 1 0 5 -8 7 -18z m1405 -17
c0 -8 -4 -12 -9 -9 -4 3 -8 9 -8 15 0 5 4 9 8 9 5 0 9 -7 9 -15z m-1417 -70
c0 -5 -5 -3 -10 5 -5 8 -10 20 -10 25 0 6 5 3 10 -5 5 -8 10 -19 10 -25z m608
-35 c1 -34 -3 -60 -8 -60 -6 0 -10 18 -10 40 0 34 -4 42 -26 52 l-25 12 22 12
c36 19 45 8 47 -56z m-520 15 c-3 -3 -9 2 -12 12 -6 14 -5 15 5 6 7 -7 10 -15
7 -18z m-118 -35 c11 -22 18 -40 16 -40 -3 0 11 -28 30 -61 19 -34 28 -57 20
-50 -18 15 -102 191 -91 191 3 0 14 -18 25 -40z m1617 24 c1 -5 -7 -9 -17 -8
-24 1 -25 -5 -3 -21 24 -18 25 -45 1 -65 -22 -18 -18 -40 8 -40 8 0 12 5 9 10
-4 6 -1 9 6 8 8 -2 17 13 23 35 5 20 13 37 18 37 12 0 10 -7 -13 -74 -68 -191
-302 -420 -545 -532 -194 -90 -465 -101 -654 -27 -139 55 -296 165 -402 283
-75 82 -75 99 0 23 84 -87 168 -159 244 -209 37 -24 70 -44 73 -44 3 0 27 -9
52 -21 66 -30 150 -50 181 -43 20 4 23 3 12 -5 -11 -8 -6 -10 20 -11 19 -1 67
-2 105 -3 116 -4 300 41 420 101 105 52 309 209 297 228 -7 11 5 25 23 28 11
2 19 9 18 15 -2 6 18 39 43 73 28 38 44 53 39 38 -11 -37 -1 -22 24 34 15 35
17 45 6 36 -11 -9 -15 -9 -15 -1 0 19 -42 -8 -47 -30 -3 -11 -17 -26 -32 -34
-14 -8 -20 -14 -13 -15 9 0 11 -7 6 -22 -9 -29 -26 -46 -42 -40 -6 2 -12 -4
-12 -12 0 -22 -26 -31 -44 -17 -11 9 -15 9 -19 -1 -4 -9 -6 -7 -6 4 -1 9 6 23
14 32 8 8 15 22 15 31 0 9 6 15 13 12 16 -6 49 12 42 23 -3 5 -13 6 -22 3 -11
-4 -14 -2 -11 8 3 8 11 13 17 11 7 -1 10 2 6 8 -3 6 3 22 15 37 12 16 17 29
11 31 -21 7 20 34 44 29 14 -2 25 0 25 4 0 8 -18 13 -47 12 -9 0 -9 4 0 18 8
13 13 15 19 6 5 -8 8 -7 8 4 0 9 7 22 15 29 8 7 13 16 10 20 -3 5 0 10 6 12
20 7 54 2 56 -8z m-1658 -30 c-8 -10 -8 -14 0 -14 15 0 14 -27 -1 -34 -8 -3
-7 -5 2 -3 20 3 55 -33 81 -85 12 -24 34 -59 50 -79 26 -33 27 -37 13 -57 -14
-20 -13 -21 3 -16 15 4 14 3 -2 -7 -33 -21 -46 -37 -35 -44 5 -3 10 -1 10 6 0
10 3 10 12 1 9 -9 18 -6 39 14 32 31 50 15 19 -16 -26 -26 -20 -50 24 -84 l33
-25 11 24 c15 33 48 50 56 29 8 -21 -12 -57 -28 -51 -7 3 -19 2 -26 -3 -8 -5
4 -20 43 -49 50 -36 76 -61 64 -61 -11 0 -157 120 -206 170 -19 19 -31 28 -26
20 10 -18 -40 25 -73 63 -13 15 -27 25 -32 22 -12 -7 -43 33 -34 46 4 7 3 10
-4 5 -14 -8 -54 57 -46 77 3 8 1 18 -5 22 -7 4 -8 -1 -4 -12 5 -14 3 -16 -7
-6 -10 9 -11 15 -1 27 9 11 8 17 -4 30 -10 10 -12 16 -5 16 7 0 10 7 6 15 -6
18 23 51 51 57 10 2 17 10 15 17 -1 7 2 10 8 6 8 -5 7 -11 -1 -21z m114 -37
c4 -11 3 -16 -3 -12 -17 11 -5 -29 19 -63 12 -18 24 -38 25 -45 3 -22 17 -37
28 -31 6 4 8 2 4 -4 -3 -6 15 -32 41 -58 27 -26 37 -39 23 -28 -51 39 -121
118 -116 131 3 7 1 13 -4 13 -11 0 -44 60 -33 60 5 0 3 4 -2 8 -6 4 -16 21
-23 37 l-13 30 21 -25 c15 -20 20 -21 20 -8 0 9 -4 20 -10 23 -5 3 -10 11 -10
18 0 13 23 -19 33 -46z m1572 43 c-3 -5 -10 -10 -16 -10 -5 0 -9 5 -9 10 0 6
7 10 16 10 8 0 12 -4 9 -10z m-798 -52 c-3 -8 -6 -5 -6 6 -1 11 2 17 5 13 3
-3 4 -12 1 -19z m602 -1 c13 5 14 3 3 -8 -10 -11 -15 -10 -27 4 -8 9 -10 13
-4 8 6 -5 19 -7 28 -4z m-1338 -50 l11 -22 -21 22 c-22 23 -28 39 -11 28 5 -3
15 -16 21 -28z m1109 -31 c0 -3 -4 -8 -10 -11 -5 -3 -10 -1 -10 4 0 6 5 11 10
11 6 0 10 -2 10 -4z m-9 -49 l-44 -42 38 47 c22 26 41 45 44 42 3 -2 -15 -24
-38 -47z m-220 29 c-9 -11 -9 -15 1 -18 10 -4 10 -8 -1 -21 -21 -26 -29 -20
-29 18 0 28 4 35 20 35 16 0 18 -3 9 -14z m-154 -28 c-3 -7 -5 -2 -5 12 0 14
2 19 5 13 2 -7 2 -19 0 -25z m523 3 c-5 -11 -15 -23 -21 -27 -6 -3 -3 5 6 20
20 30 30 35 15 7z m-65 -33 c-22 -23 -46 -48 -52 -56 -7 -7 -13 -10 -13 -6 0
9 91 104 99 104 3 0 -13 -19 -34 -42z m51 -30 c-9 -12 -16 -19 -16 -15 0 11
24 47 28 42 2 -2 -3 -14 -12 -27z m-373 -49 c-12 -12 -78 -29 -108 -28 -15 1
68 28 115 38 2 1 -1 -4 -7 -10z m367 -13 c0 -2 -8 -10 -17 -17 -16 -13 -17
-12 -4 4 13 16 21 21 21 13z m-1144 -30 c3 -8 15 -16 26 -19 20 -6 20 -6 -2
-36 -21 -31 -40 -33 -40 -5 0 8 -7 14 -15 14 -8 0 -15 5 -15 11 0 6 9 8 20 4
11 -4 20 -2 20 4 0 6 -4 10 -9 9 -9 -3 -11 2 -11 22 0 15 20 12 26 -4z m1185
4 c10 -6 19 -16 19 -23 0 -16 -38 -40 -50 -32 -6 3 -7 -1 -4 -9 9 -23 -11 -20
-27 4 -13 19 -16 20 -36 5 -18 -13 -21 -20 -13 -40 5 -14 7 -32 4 -40 -8 -19
-34 -20 -34 -1 0 8 -9 18 -21 21 -14 5 -19 13 -16 26 3 11 0 19 -6 19 -7 0 -6
4 3 9 8 6 17 8 21 5 4 -2 10 3 13 12 4 10 13 13 25 9 11 -3 22 -1 26 5 3 5 14
10 25 10 10 0 20 7 24 15 6 18 20 19 47 5z m-1874 -67 c-3 -10 -5 -2 -5 17 0
19 2 27 5 18 2 -10 2 -26 0 -35z m1373 7 c0 -5 -7 -10 -16 -10 -8 0 -12 5 -9
10 3 6 10 10 16 10 5 0 9 -4 9 -10z m235 0 c-3 -5 -11 -10 -16 -10 -6 0 -7 5
-4 10 3 6 11 10 16 10 6 0 7 -4 4 -10z m-317 -7 c-26 -2 -71 -2 -100 0 -29 2
-8 3 47 3 55 0 79 -1 53 -3z m-461 -31 c10 -6 7 -18 -8 -50 -17 -34 -24 -40
-35 -31 -8 6 -11 15 -8 20 3 5 -3 9 -12 9 -15 0 -15 3 4 20 12 12 22 25 22 30
0 12 20 13 37 2z m839 -27 c2 -20 -1 -23 -11 -15 -18 15 -32 -27 -15 -44 8 -8
10 -7 5 6 -7 18 16 27 48 20 26 -7 20 -30 -13 -47 -16 -8 -32 -15 -35 -15 -5
-1 -13 -3 -62 -19 -29 -9 -41 -4 -30 13 1 2 -6 13 -16 24 -11 12 -16 27 -12
34 3 7 -3 2 -15 -11 -17 -20 -23 -22 -30 -11 -19 31 49 71 72 43 11 -13 14
-12 25 13 7 16 12 23 13 17 0 -7 5 -13 11 -13 5 0 8 4 4 9 -3 5 9 12 27 14 18
2 33 5 33 5 0 1 1 -9 1 -23z m-722 -46 c5 -4 4 -22 -3 -40 -11 -32 -11 -32 9
-14 17 15 20 16 20 3 0 -25 -27 -29 -65 -10 -32 16 -48 42 -25 42 6 0 10 8 10
17 0 14 -3 13 -20 -5 -12 -12 -24 -22 -28 -22 -13 0 -5 62 9 71 12 7 64 -16
93 -42z m-947 -41 c-2 -18 -4 -6 -4 27 0 33 2 48 4 33 2 -15 2 -42 0 -60z
m1006 -20 c4 -13 1 -26 -6 -30 -9 -6 -8 -8 2 -8 8 0 12 -3 8 -6 -8 -8 -47 6
-47 17 0 6 4 8 9 5 11 -7 23 22 15 35 -3 5 -1 9 4 9 5 0 12 -10 15 -22z m525
10 c19 -19 14 -30 -8 -18 -11 6 -20 15 -20 20 0 14 14 12 28 -2z m-658 -34 c0
-2 -9 0 -20 6 -11 6 -20 13 -20 16 0 2 9 0 20 -6 11 -6 20 -13 20 -16z m210 6
c0 -11 -7 -20 -16 -20 -9 0 -12 5 -8 12 5 8 1 9 -12 5 -18 -7 -18 -7 0 8 27
20 36 19 36 -5z m260 -9 c12 -24 3 -51 -19 -52 -9 -1 -37 -1 -62 1 -33 1 -48
-3 -52 -13 -4 -10 -13 -13 -26 -10 -20 5 -31 23 -38 60 -3 21 0 22 74 26 43 1
86 4 95 5 10 1 22 -7 28 -17z m108 -1 c1 -8 -7 -21 -18 -27 -17 -11 -21 -10
-34 16 -15 28 -15 28 17 27 20 -1 33 -7 35 -16z m-378 -30 c0 -5 -4 -10 -9
-10 -6 0 -13 5 -16 10 -3 6 1 10 9 10 9 0 16 -4 16 -10z m-1073 -52 c-3 -8 -6
-5 -6 6 -1 11 2 17 5 13 3 -3 4 -12 1 -19z m1266 15 c-7 -2 -21 -2 -30 0 -10
3 -4 5 12 5 17 0 24 -2 18 -5z m-1266 -200 c-2 -16 -4 -3 -4 27 0 30 2 43 4
28 2 -16 2 -40 0 -55z m1213 2 c0 -8 -4 -15 -10 -15 -5 0 -10 7 -10 15 0 8 5
15 10 15 6 0 10 -7 10 -15z m-1201 -262 c1 -59 -2 -73 -14 -73 -12 0 -15 13
-15 59 0 32 3 73 7 92 5 28 7 30 14 14 4 -11 8 -53 8 -92z m2310 72 c-7 -7
-2290 -8 -2296 -1 -4 3 513 6 1147 6 634 0 1151 -2 1149 -5z m-2243 -165 c33
0 34 -1 34 -40 0 -38 -2 -40 -29 -40 -17 0 -33 4 -36 10 -4 6 -13 5 -24 -2
-27 -17 -48 -4 -53 34 -6 39 6 51 46 43 16 -3 44 -5 62 -5z m2276 -5 c3 -3 3
-17 0 -30 -3 -18 -14 -27 -40 -34 -19 -6 -39 -8 -44 -5 -10 6 -11 58 -1 67 8
8 77 9 85 2z m-612 -95 c-300 -3 -792 -3 -1095 0 l-550 5 552 5 c303 3 796 3
1095 0 l543 -5 -545 -5z m-530 -517 c0 -5 251 -9 557 -11 307 -2 560 -5 562
-8 2 -2 2 -6 0 -8 -14 -14 -2301 -11 -2359 3 -20 5 226 9 593 10 410 1 627 4
627 11 0 6 5 10 10 10 6 0 10 -3 10 -7z"/>
<path d="M5478 6691 c36 -23 56 -27 50 -9 -2 6 -13 12 -24 13 -10 2 -28 6 -39
10 -11 4 -5 -2 13 -14z"/>
<path d="M5451 6674 c0 -11 3 -14 6 -6 3 7 2 16 -1 19 -3 4 -6 -2 -5 -13z"/>
<path d="M5540 6660 c0 -6 -5 -8 -12 -4 -7 5 -9 2 -5 -9 4 -12 2 -14 -10 -10
-13 5 -15 2 -10 -11 4 -9 3 -15 -1 -12 -5 3 -16 -4 -25 -15 -9 -10 -16 -19
-14 -20 1 0 13 -2 26 -3 14 -2 27 -8 29 -14 2 -7 8 -12 14 -12 6 0 4 8 -4 18
-18 20 -14 38 14 68 13 14 16 24 9 29 -6 3 -11 1 -11 -5z"/>
<path d="M5416 6652 c-3 -6 3 -12 15 -15 12 -3 19 -1 16 6 -5 15 -24 20 -31 9z"/>
<path d="M5683 6537 c4 -10 1 -26 -5 -37 -9 -14 -9 -22 1 -34 19 -22 38 -20
52 5 10 19 7 26 -22 53 -21 19 -30 24 -26 13z"/>
<path d="M5660 6423 c1 -36 43 -85 66 -76 13 5 15 2 10 -15 -4 -11 -2 -23 3
-27 7 -4 8 1 4 11 -13 34 17 3 32 -33 9 -20 18 -34 21 -31 7 8 -28 76 -54 106
-13 15 -23 19 -27 12 -10 -17 -34 20 -35 53 0 15 -4 27 -10 27 -5 0 -10 -12
-10 -27z"/>
<path d="M5734 6428 c-3 -5 -2 -8 3 -7 19 3 34 -2 29 -10 -4 -5 5 -4 19 2 14
7 25 14 25 17 0 9 -71 7 -76 -2z"/>
<path d="M5696 6395 c4 -8 10 -12 15 -9 14 8 10 24 -6 24 -9 0 -12 -6 -9 -15z"/>
<path d="M5822 6371 c-11 -7 -11 -9 2 -14 10 -4 16 -1 16 8 0 17 -1 17 -18 6z"/>
<path d="M5857 6311 c-3 -13 0 -18 7 -15 7 3 13 11 13 19 0 22 -14 18 -20 -4z"/>
<path d="M5860 6259 c0 -5 5 -7 10 -4 6 3 10 8 10 11 0 2 -4 4 -10 4 -5 0 -10
-5 -10 -11z"/>
<path d="M5840 6240 c0 -5 5 -10 11 -10 5 0 7 5 4 10 -3 6 -8 10 -11 10 -2 0
-4 -4 -4 -10z"/>
<path d="M5905 6240 c3 -5 8 -10 11 -10 2 0 4 5 4 10 0 6 -5 10 -11 10 -5 0
-7 -4 -4 -10z"/>
<path d="M5883 6191 c0 -11 5 -17 9 -15 11 7 10 34 -1 34 -6 0 -9 -9 -8 -19z"/>
<path d="M5918 6183 c7 -3 16 -2 19 1 4 3 -2 6 -13 5 -11 0 -14 -3 -6 -6z"/>
<path d="M5120 6741 c0 -7 -4 -9 -10 -6 -5 3 -10 1 -10 -4 0 -6 4 -11 9 -11
13 0 25 20 17 27 -3 4 -6 1 -6 -6z"/>
<path d="M4540 6611 c0 -11 9 -21 21 -24 20 -5 20 -5 3 14 -21 23 -7 25 24 3
12 -8 22 -11 22 -5 0 12 -33 31 -54 31 -9 0 -16 -8 -16 -19z"/>
<path d="M4505 6520 c3 -5 11 -10 16 -10 6 0 7 5 4 10 -3 6 -11 10 -16 10 -6
0 -7 -4 -4 -10z"/>
<path d="M4987 6156 c-8 -9 -17 -19 -19 -23 -1 -5 -36 -37 -75 -72 l-73 -63 0
-62 c0 -68 13 -88 75 -120 40 -21 45 -11 45 107 0 82 2 97 16 97 13 0 15 -8
10 -47 -5 -44 -9 -125 -7 -148 1 -6 31 -9 76 -7 l75 4 0 67 c0 37 -5 72 -11
78 -7 7 -8 35 -2 87 10 87 5 98 -49 99 -18 1 -36 5 -39 10 -3 5 -13 1 -22 -7z"/>
<path d="M5127 5968 c2 -78 5 -143 6 -144 3 -3 59 -6 105 -5 l42 1 0 88 0 88
-67 50 c-36 27 -72 52 -78 56 -9 5 -11 -29 -8 -134z"/>
<path d="M5047 5763 c-67 -3 -78 -6 -75 -21 2 -12 16 -18 48 -22 36 -4 52 0
83 19 35 22 46 34 30 29 -5 -1 -43 -4 -86 -5z"/>
<path d="M5000 5700 c0 -13 18 -22 24 -11 3 5 -1 11 -9 15 -8 3 -15 1 -15 -4z"/>
<path d="M5060 5610 c0 -29 2 -30 45 -30 43 0 45 1 45 30 0 29 -2 30 -45 30
-43 0 -45 -1 -45 -30z"/>
<path d="M4248 5946 c-4 -39 -5 -72 -3 -75 12 -11 16 11 13 75 l-3 69 -7 -69z"/>
<path d="M4213 5955 c0 -22 2 -30 4 -17 2 12 2 30 0 40 -3 9 -5 -1 -4 -23z"/>
<path d="M5840 5252 c-18 -26 -25 -41 -16 -33 22 19 59 71 54 76 -2 3 -19 -17
-38 -43z"/>
<path d="M4230 5409 c0 -5 5 -7 10 -4 6 3 10 8 10 11 0 2 -4 4 -10 4 -5 0 -10
-5 -10 -11z"/>
<path d="M4331 5293 c-18 -19 -10 -25 12 -8 10 7 15 15 10 18 -4 3 -14 -2 -22
-10z"/>
<path d="M2790 7075 l0 -45 84 0 c46 0 91 -3 100 -6 13 -5 16 2 16 45 l0 51
-100 0 -100 0 0 -45z"/>
<path d="M7020 7050 l0 -68 79 1 78 2 2 65 2 65 -81 2 -80 2 0 -69z"/>
<path d="M2795 7000 c6 -9 113 -5 123 5 3 3 -25 5 -62 5 -41 0 -65 -4 -61 -10z"/>
<path d="M7020 6873 c0 -25 2 -44 4 -42 8 10 13 89 5 89 -5 0 -9 -21 -9 -47z"/>
<path d="M7130 6909 c0 -5 5 -7 10 -4 6 3 10 8 10 11 0 2 -4 4 -10 4 -5 0 -10
-5 -10 -11z"/>
<path d="M7020 6769 c0 -11 5 -19 11 -19 5 0 8 3 6 8 -3 4 26 6 64 4 58 -3 69
-1 69 12 0 18 -55 23 -65 6 -4 -6 -11 -7 -17 -4 -6 4 -23 8 -39 9 -23 2 -29
-2 -29 -16z"/>
<path d="M3040 6771 c0 -6 5 -13 10 -16 6 -3 10 1 10 9 0 9 -4 16 -10 16 -5 0
-10 -4 -10 -9z"/>
<path d="M7022 6655 c0 -16 2 -22 5 -12 2 9 2 23 0 30 -3 6 -5 -1 -5 -18z"/>
<path d="M7058 6643 c12 -2 32 -2 45 0 12 2 2 4 -23 4 -25 0 -35 -2 -22 -4z"/>
<path d="M2911 4413 c-1 -7 -4 -12 -8 -12 -5 1 -32 1 -60 0 l-53 -1 0 -161 0
-161 73 3 c80 4 117 -5 117 -27 0 -11 -20 -14 -100 -14 l-100 0 0 -293 c0
-249 2 -296 16 -315 l15 -22 460 0 459 0 0 58 c0 99 -3 102 -74 101 -36 0 -54
-3 -42 -8 33 -13 -44 -29 -105 -21 -29 4 -59 5 -66 3 -6 -3 -22 1 -34 8 -23
12 -23 12 -4 21 14 6 10 7 -14 3 -18 -3 -68 -5 -111 -5 l-78 0 4 -67 c4 -75
-9 -56 -21 28 l-6 46 -51 6 c-56 7 -90 25 -114 62 -14 22 -17 74 -20 396 -3
335 -7 410 -21 372 -3 -7 -15 -13 -28 -13 -13 0 -26 6 -28 13 -4 10 -6 10 -6
0z m796 -872 c-1 -12 -6 -17 -16 -13 -12 4 -12 7 -2 10 11 4 11 6 0 13 -11 7
-10 9 3 9 10 0 16 -7 15 -19z m-452 -11 c3 -5 1 -10 -4 -10 -6 0 -11 5 -11 10
0 6 2 10 4 10 3 0 8 -4 11 -10z"/>
<path d="M7020 4263 l0 -103 81 0 c79 0 81 1 75 23 -3 12 -6 36 -6 52 l0 30
-70 -3 c-56 -3 -70 -1 -70 11 0 19 121 32 132 14 4 -7 8 7 8 30 l0 41 -75 4
-75 3 0 -102z"/>
<path d="M7020 4070 l0 -50 74 0 74 0 4 46 c2 25 1 47 -1 50 -2 2 -37 4 -78 4
l-73 0 0 -50z"/>
<path d="M7018 3817 c-4 -82 -12 -154 -18 -161 -5 -8 -8 -21 -4 -30 3 -9 1
-16 -5 -16 -6 0 -11 5 -11 11 0 5 -5 7 -10 4 -6 -4 -7 -11 -4 -17 4 -7 2 -8
-5 -4 -6 4 -18 3 -25 -3 -7 -6 -30 -14 -52 -19 -30 -6 -40 -13 -42 -31 -2 -14
-14 -26 -33 -33 -16 -5 -29 -16 -29 -23 0 -7 -10 -15 -21 -18 -16 -4 -20 -11
-16 -26 4 -17 0 -21 -18 -21 -13 0 -26 -4 -30 -10 -3 -5 80 -9 220 -10 212 0
226 1 245 20 19 19 20 33 20 230 0 116 -3 210 -7 210 -25 1 -120 12 -130 15
-6 2 -13 21 -15 42 -2 21 -6 -29 -10 -110z"/>
<path d="M3463 3563 c15 -2 37 -2 50 0 12 2 0 4 -28 4 -27 0 -38 -2 -22 -4z"/>
<path d="M6660 3420 c0 -5 5 -10 10 -10 6 0 10 5 10 10 0 6 -4 10 -10 10 -5 0
-10 -4 -10 -10z"/>
<path d="M9300 7835 c-11 -13 -10 -14 4 -9 9 3 16 10 16 15 0 13 -6 11 -20 -6z"/>
<path d="M9313 6605 c0 -22 2 -30 4 -17 2 12 2 30 0 40 -3 9 -5 -1 -4 -23z"/>
<path d="M9311 6504 c0 -11 3 -14 6 -6 3 7 2 16 -1 19 -3 4 -6 -2 -5 -13z"/>
<path d="M8560 6262 c0 -15 32 -24 44 -12 7 7 7 10 -1 10 -6 0 -18 3 -27 6 -9
3 -16 2 -16 -4z"/>
<path d="M1430 6200 c-12 -7 -10 -9 7 -7 12 0 19 5 17 9 -6 10 -6 10 -24 -2z"/>
<path d="M1401 6164 c0 -11 3 -14 6 -6 3 7 2 16 -1 19 -3 4 -6 -2 -5 -13z"/>
<path d="M1420 6168 c0 -5 5 -8 11 -8 6 0 8 -8 4 -19 -4 -13 1 -24 13 -33 10
-7 21 -20 25 -28 3 -8 6 10 6 40 1 56 1 56 -29 55 -16 0 -30 -3 -30 -7z"/>
<path d="M1491 6164 c0 -11 3 -14 6 -6 3 7 2 16 -1 19 -3 4 -6 -2 -5 -13z"/>
<path d="M1492 6100 c0 -14 2 -19 5 -12 2 6 2 18 0 25 -3 6 -5 1 -5 -13z"/>
<path d="M1524 5943 c3 -21 5 -67 6 -102 0 -35 3 -61 8 -57 4 4 7 50 7 102 0
72 -3 94 -13 94 -10 0 -12 -10 -8 -37z"/>
<path d="M1451 5904 c0 -11 3 -14 6 -6 3 7 2 16 -1 19 -3 4 -6 -2 -5 -13z"/>
<path d="M1430 5820 c0 -11 5 -20 10 -20 6 0 10 9 10 20 0 11 -4 20 -10 20 -5
0 -10 -9 -10 -20z"/>
<path d="M9801 4914 c0 -11 3 -14 6 -6 3 7 2 16 -1 19 -3 4 -6 -2 -5 -13z"/>
<path d="M8248 4444 c-15 -8 -38 -28 -52 -45 -28 -33 -36 -59 -11 -39 11 9 15
9 15 1 0 -7 11 -11 27 -9 22 2 31 13 50 56 24 55 19 61 -29 36z"/>
<path d="M8281 4194 c0 -11 3 -14 6 -6 3 7 2 16 -1 19 -3 4 -6 -2 -5 -13z"/>
<path d="M1720 4490 c0 -5 5 -10 11 -10 5 0 7 5 4 10 -3 6 -8 10 -11 10 -2 0
-4 -4 -4 -10z"/>
<path d="M1591 4294 c0 -11 3 -14 6 -6 3 7 2 16 -1 19 -3 4 -6 -2 -5 -13z"/>
<path d="M1555 4290 c-3 -5 -1 -10 4 -10 6 0 11 5 11 10 0 6 -2 10 -4 10 -3 0
-8 -4 -11 -10z"/>
<path d="M799 3704 c6 -12 7 -24 4 -28 -3 -3 -1 -6 5 -6 16 0 15 12 -4 36 -15
18 -15 18 -5 -2z"/>
<path d="M821 3644 c0 -11 3 -14 6 -6 3 7 2 16 -1 19 -3 4 -6 -2 -5 -13z"/>
<path d="M930 2490 c-13 -8 -13 -10 2 -10 9 0 20 5 23 10 8 13 -5 13 -25 0z"/>
</g>
</svg>
